<!DOCTYPE svg PUBLIC "-//W3C//DTD SVG 1.1//EN" "http://www.w3.org/Graphics/SVG/1.1/DTD/svg11.dtd" [
	<!ENTITY ns_flows "http://ns.adobe.com/Flows/1.0/">
]><svg xmlns="http://www.w3.org/2000/svg" width="283" height="209" viewBox="0 0 283 209"><path fill="#FFF" stroke="#4E6BB0" stroke-width="2" stroke-miterlimit="10" d="M123 149v14h50v-14M244 137c0 6.627-5.373 12-12 12H66c-6.627 0-12-5.373-12-12V41c0-6.627 5.373-12 12-12h166c6.627 0 12 5.373 12 12v96zM181 165.5c0 1.38-1.12 2.5-2.5 2.5h-62c-1.38 0-2.5-1.12-2.5-2.5s1.12-2.5 2.5-2.5h62c1.38 0 2.5 1.12 2.5 2.5z"/><circle fill="#BFC1C1" stroke="#BFC1C1" stroke-width="2" stroke-miterlimit="10" cx="149" cy="139" r="4"/><path fill="#FFF" stroke="#4E6BB0" stroke-width="2" stroke-miterlimit="10" d="M60 38h178v89H60z"/><path fill="#FFF" stroke="#4E6BB0" stroke-width="2" stroke-miterlimit="10" d="M81 160.45c0 4.722-1.54 8.55-3.442 8.55H29.442c-1.9 0-3.442-3.828-3.442-8.55v-68.9c0-4.722 1.54-8.55 3.442-8.55h48.115C79.46 83 81 86.828 81 91.55v68.9z"/><path fill="none" stroke="#4E6BB0" stroke-width="2" stroke-miterlimit="10" d="M30 91h46v68H30z"/><ellipse fill="#BFC1C1" stroke="#BFC1C1" stroke-width="1.208" stroke-miterlimit="10" cx="52.5" cy="164.334" rx="2.5" ry="2.333"/><path fill="#BFC1C1" stroke="#BFC1C1" stroke-miterlimit="10" d="M64.5 87.5c0 .552-.448 1-1 1h-21c-.552 0-1-.448-1-1s.448-1 1-1h21c.552 0 1 .448 1 1z"/><path fill="#FFF" stroke="#4E6BB0" stroke-width="2" stroke-miterlimit="10" d="M259 165.463c0 3.058-.88 5.537-1.966 5.537h-27.068c-1.086 0-1.966-2.48-1.966-5.537v-44.926c0-3.058.88-5.537 1.966-5.537h27.068c1.086 0 1.966 2.48 1.966 5.537v44.926z"/><path fill="none" stroke="#4E6BB0" stroke-width="2" stroke-miterlimit="10" d="M232 123h24v42h-24z"/><path fill="#BFC1C1" stroke="#BFC1C1" stroke-miterlimit="10" d="M249.5 119.27c0 .128-.174.23-.39.23H238.89c-.215 0-.39-.103-.39-.23v-.54c0-.127.175-.23.39-.23h10.223c.216 0 .39.104.39.23v.54z"/><path fill="none" stroke="#5A5B5B" stroke-width="2" stroke-miterlimit="10" d="M41.5 144L54 126.667l6 8.667 12-14M87.333 107.5l31.334-40.166 12.666 14L181 74.667l23.667 6.667 20.666 29M238 127.334L244 146l5.5-9.333"/><ellipse fill="#5A5B5B" stroke="#5A5B5B" stroke-width="2" stroke-miterlimit="10" cx="42.5" cy="143.334" rx="2.5" ry="2.333"/><ellipse fill="#5A5B5B" stroke="#5A5B5B" stroke-width="2" stroke-miterlimit="10" cx="53.5" cy="126.334" rx="2.5" ry="2.333"/><ellipse fill="#5A5B5B" stroke="#5A5B5B" stroke-width="2" stroke-miterlimit="10" cx="60.5" cy="135.334" rx="2.5" ry="2.333"/><ellipse fill="#5A5B5B" stroke="#5A5B5B" stroke-width="2" stroke-miterlimit="10" cx="118.5" cy="67.334" rx="2.5" ry="2.333"/><ellipse fill="#5A5B5B" stroke="#5A5B5B" stroke-width="2" stroke-miterlimit="10" cx="131.5" cy="81.334" rx="2.5" ry="2.333"/><ellipse fill="#5A5B5B" stroke="#5A5B5B" stroke-width="2" stroke-miterlimit="10" cx="181.5" cy="75.334" rx="2.5" ry="2.333"/><ellipse fill="#5A5B5B" stroke="#5A5B5B" stroke-width="2" stroke-miterlimit="10" cx="204.5" cy="81.334" rx="2.5" ry="2.333"/><ellipse fill="#5A5B5B" stroke="#5A5B5B" stroke-width="2" stroke-miterlimit="10" cx="244.5" cy="145.334" rx="2.5" ry="2.333"/><ellipse fill="#5A5B5B" stroke="#5A5B5B" stroke-width="2" stroke-miterlimit="10" cx="250.5" cy="134.334" rx="2.5" ry="2.333"/><path fill="none" d="M0 0h283v209H0z"/></svg>