<!DOCTYPE svg PUBLIC "-//W3C//DTD SVG 1.1//EN" "http://www.w3.org/Graphics/SVG/1.1/DTD/svg11.dtd" [
	<!ENTITY ns_flows "http://ns.adobe.com/Flows/1.0/">
]><svg xmlns="http://www.w3.org/2000/svg" width="359" height="209" viewBox="0 0 359 209"><path fill="none" d="M0 0h359v209H0z"/><path fill="#FFF" stroke="#4E6BB0" stroke-width="2" stroke-miterlimit="10" d="M224 183.5c0 1.38-1.12 2.5-2.5 2.5h-62c-1.38 0-2.5-1.12-2.5-2.5s1.12-2.5 2.5-2.5h62c1.38 0 2.5 1.12 2.5 2.5z"/><path fill="none" stroke="#BFC1C1" stroke-width="2" stroke-miterlimit="10" d="M157.15 36h9.323M179 36h13v11M134.988 36h11.083M116 36h7.826"/><path fill="#FFF" stroke="#4E6BB0" stroke-width="2" stroke-miterlimit="10" d="M116 177.226c0 5.95-5.373 10.774-12 10.774H32c-6.627 0-12-4.824-12-10.774V31.774C20 25.824 25.373 21 32 21h72c6.627 0 12 4.824 12 10.774v145.452z"/><circle fill="#5A5B5B" stroke="#5A5B5B" stroke-width="2" stroke-miterlimit="10" cx="37" cy="38" r="4"/><circle fill="#5A5B5B" stroke="#5A5B5B" stroke-width="2" stroke-miterlimit="10" cx="37" cy="70" r="4"/><circle fill="#5A5B5B" stroke="#5A5B5B" stroke-width="2" stroke-miterlimit="10" cx="37" cy="104" r="4"/><circle fill="#5A5B5B" stroke="#5A5B5B" stroke-width="2" stroke-miterlimit="10" cx="37" cy="139" r="4"/><circle fill="#5A5B5B" stroke="#5A5B5B" stroke-width="2" stroke-miterlimit="10" cx="37" cy="171" r="4"/><path fill="#BFC1C1" stroke="#BFC1C1" stroke-miterlimit="10" d="M64.5 37.5c0 1.104-.48 2-1.076 2H51.576c-.594 0-1.076-.896-1.076-2s.48-2 1.076-2h11.85c.593 0 1.074.896 1.074 2zM103.5 37.5c0 1.104-1.117 2-2.494 2H72.994c-1.377 0-2.494-.896-2.494-2s1.117-2 2.494-2h28.012c1.377 0 2.494.896 2.494 2zM64.5 69.5c0 1.104-.48 2-1.076 2H51.576c-.594 0-1.076-.896-1.076-2s.48-2 1.076-2h11.85c.593 0 1.074.896 1.074 2zM103.5 69.5c0 1.104-1.117 2-2.494 2H72.994c-1.377 0-2.494-.896-2.494-2s1.117-2 2.494-2h28.012c1.377 0 2.494.896 2.494 2zM63.5 103.5c0 1.104-.48 2-1.076 2H50.576c-.594 0-1.076-.896-1.076-2s.48-2 1.076-2h11.85c.593 0 1.074.896 1.074 2zM102.5 103.5c0 1.104-1.117 2-2.494 2H71.994c-1.377 0-2.494-.896-2.494-2s1.117-2 2.494-2h28.012c1.377 0 2.494.896 2.494 2zM63.5 139.5c0 1.104-.48 2-1.076 2H50.576c-.594 0-1.076-.896-1.076-2s.48-2 1.076-2h11.85c.593 0 1.074.896 1.074 2zM102.5 139.5c0 1.104-1.117 2-2.494 2H71.994c-1.377 0-2.494-.896-2.494-2s1.117-2 2.494-2h28.012c1.377 0 2.494.896 2.494 2zM63.5 171.5c0 1.104-.48 2-1.076 2H50.576c-.594 0-1.076-.896-1.076-2s.48-2 1.076-2h11.85c.593 0 1.074.896 1.074 2zM102.5 171.5c0 1.104-1.117 2-2.494 2H71.994c-1.377 0-2.494-.896-2.494-2s1.117-2 2.494-2h28.012c1.377 0 2.494.896 2.494 2z"/><path fill="#FFF" stroke="#4E6BB0" stroke-width="2" stroke-miterlimit="10" d="M20 55h96M20 87h96M20 120h96M20 156h96M166 167v14h50v-14"/><path fill="#FFF" stroke="#4E6BB0" stroke-width="2" stroke-miterlimit="10" d="M287 155c0 6.627-5.373 12-12 12H109c-6.627 0-12-5.373-12-12V59c0-6.627 5.373-12 12-12h166c6.627 0 12 5.373 12 12v96z"/><circle fill="#BFC1C1" stroke="#BFC1C1" stroke-width="2" stroke-miterlimit="10" cx="190" cy="157" r="4"/><path fill="none" stroke="#4E6BB0" stroke-width="2" stroke-miterlimit="10" d="M103 56h178v89H103z"/><path fill="#F8E68E" stroke="#F1CE24" stroke-width="2" stroke-miterlimit="10" d="M278 147v43"/><path fill="#FFF" stroke="#F1CE24" stroke-width="2" stroke-miterlimit="10" d="M300 147v43"/><ellipse fill="#FFF" stroke="#F1CE24" stroke-width="1.78" stroke-miterlimit="10" cx="289" cy="189.25" rx="11" ry="4.75"/><ellipse fill="#FFF" stroke="#F1CE24" stroke-width="1.78" stroke-miterlimit="10" cx="289" cy="185.25" rx="11" ry="4.75"/><ellipse fill="#FFF" stroke="#F1CE24" stroke-width="1.78" stroke-miterlimit="10" cx="289" cy="181.25" rx="11" ry="4.75"/><ellipse fill="#FFF" stroke="#F1CE24" stroke-width="1.78" stroke-miterlimit="10" cx="289" cy="176.25" rx="11" ry="4.75"/><ellipse fill="#FFF" stroke="#F1CE24" stroke-width="1.78" stroke-miterlimit="10" cx="289" cy="171.25" rx="11" ry="4.75"/><ellipse fill="#FFF" stroke="#F1CE24" stroke-width="1.78" stroke-miterlimit="10" cx="289" cy="166.25" rx="11" ry="4.75"/><ellipse fill="#FFF" stroke="#F1CE24" stroke-width="1.78" stroke-miterlimit="10" cx="289" cy="161.25" rx="11" ry="4.75"/><ellipse fill="#FFF" stroke="#F1CE24" stroke-width="1.78" stroke-miterlimit="10" cx="289" cy="156.25" rx="11" ry="4.75"/><ellipse fill="#FFF" stroke="#F1CE24" stroke-width="1.78" stroke-miterlimit="10" cx="289" cy="151.25" rx="11" ry="4.75"/><ellipse fill="#FFF" stroke="#F1CE24" stroke-width="1.78" stroke-miterlimit="10" cx="289" cy="147.25" rx="11" ry="4.75"/><path fill="#F8E68E" stroke="#F1CE24" stroke-width="2" stroke-miterlimit="10" d="M281 163v31"/><ellipse fill="#FFF" stroke="#F1CE24" stroke-width="1.78" stroke-miterlimit="10" cx="270" cy="192.25" rx="11" ry="4.75"/><ellipse fill="#FFF" stroke="#F1CE24" stroke-width="1.78" stroke-miterlimit="10" cx="270" cy="187.25" rx="11" ry="4.75"/><ellipse fill="#FFF" stroke="#F1CE24" stroke-width="1.78" stroke-miterlimit="10" cx="270" cy="182.25" rx="11" ry="4.75"/><ellipse fill="#FFF" stroke="#F1CE24" stroke-width="1.78" stroke-miterlimit="10" cx="270" cy="177.25" rx="11" ry="4.75"/><ellipse fill="#FFF" stroke="#F1CE24" stroke-width="1.78" stroke-miterlimit="10" cx="270" cy="172.25" rx="11" ry="4.75"/><ellipse fill="#FFF" stroke="#F1CE24" stroke-width="1.78" stroke-miterlimit="10" cx="270" cy="167.25" rx="11" ry="4.75"/><ellipse fill="#FFF" stroke="#F1CE24" stroke-width="1.78" stroke-miterlimit="10" cx="270" cy="163.25" rx="11" ry="4.75"/><path fill="#F8E68E" stroke="#F1CE24" stroke-width="2" stroke-miterlimit="10" d="M259 163v29"/><path fill="#FFF" stroke="#F1CE24" stroke-width="2" stroke-miterlimit="10" d="M320 159v34"/><ellipse fill="#FFF" stroke="#F1CE24" stroke-width="1.78" stroke-miterlimit="10" cx="309" cy="192.25" rx="11" ry="4.75"/><ellipse fill="#FFF" stroke="#F1CE24" stroke-width="1.78" stroke-miterlimit="10" cx="309" cy="188.25" rx="11" ry="4.75"/><ellipse fill="#FFF" stroke="#F1CE24" stroke-width="1.78" stroke-miterlimit="10" cx="309" cy="184.25" rx="11" ry="4.75"/><ellipse fill="#FFF" stroke="#F1CE24" stroke-width="1.78" stroke-miterlimit="10" cx="309" cy="179.25" rx="11" ry="4.75"/><ellipse fill="#FFF" stroke="#F1CE24" stroke-width="1.78" stroke-miterlimit="10" cx="309" cy="174.25" rx="11" ry="4.75"/><ellipse fill="#FFF" stroke="#F1CE24" stroke-width="1.78" stroke-miterlimit="10" cx="309" cy="169.25" rx="11" ry="4.75"/><ellipse fill="#FFF" stroke="#F1CE24" stroke-width="1.78" stroke-miterlimit="10" cx="309" cy="164.25" rx="11" ry="4.75"/><ellipse fill="#FFF" stroke="#F1CE24" stroke-width="1.78" stroke-miterlimit="10" cx="309" cy="159.25" rx="11" ry="4.75"/><circle fill="#FFF" stroke="#F1CE24" stroke-width="2" stroke-miterlimit="10" cx="325.333" cy="187.334" r="16.333"/><ellipse fill="#FFF" stroke="#F1CE24" stroke-miterlimit="10" cx="325.5" cy="187.168" rx="13.5" ry="13.168"/><text transform="translate(321 192)" fill="#FFF" stroke="#F1CE24" stroke-width="1.78" stroke-miterlimit="10" font-family="'MyriadPro-Regular'" font-size="16">$</text></svg>