<!DOCTYPE svg PUBLIC "-//W3C//DTD SVG 1.1//EN" "http://www.w3.org/Graphics/SVG/1.1/DTD/svg11.dtd" [
	<!ENTITY ns_flows "http://ns.adobe.com/Flows/1.0/">
]><svg xmlns="http://www.w3.org/2000/svg" width="284" height="209" viewBox="0 0 284 209"><path fill="#FFF" stroke="#F1CE24" stroke-width="2" stroke-miterlimit="10" d="M101 146h13v11h-13zM119 136h13v22h-13zM140 110h13v49h-13zM163 87h13v73h-13z"/><path fill="#FFF" d="M132.846 154.158c-.494.182-.875.426-1.275.767-.64.546-1.317.964-2.033 1.41-1.26.788-2.304 1.683-3.18 2.89-.22.304.724.233.784.224.4-.07.88-.207 1.128-.55.756-1.042 1.682-1.775 2.76-2.466.492-.315.997-.614 1.5-.916.355-.214.617-.722 1.002-.863.108-.04.867-.366.566-.585-.313-.228-.938-.027-1.25.088zM119.72 142.62c-.053.214-.103.208-.274.305.09-.05-.21.095-.247.112-.128.058-.255.116-.38.178-.593.29-1.158.658-1.38 1.31-.145.428.617.45.837.424.398-.05.953-.24 1.097-.662.07-.208.176-.236.34-.327-.075.042.212-.095.253-.113.126-.057.25-.115.375-.176.562-.277 1.15-.64 1.313-1.288.182-.723-1.765-.428-1.934.237z"/><path fill="#FFF" stroke="#4E6BB0" stroke-width="1.366" stroke-miterlimit="10" d="M166.504 199.448c-4.277 3.71-9.38 4.832-11.395 2.507l-29.017-33.46c-2.016-2.324-.182-7.215 4.096-10.924l.376-.327c4.277-3.708 9.377-4.83 11.393-2.506l29.016 33.46c2.016 2.324.183 7.214-4.095 10.923l-.376.328z"/><ellipse fill="#FFF" stroke="#4E6BB0" stroke-width="2" stroke-miterlimit="10" cx="88.068" cy="105.206" rx="49.197" ry="48.165"/><ellipse fill="#FFF" stroke="#4E6BB0" stroke-width="2" stroke-miterlimit="10" cx="88.468" cy="105.798" rx="42.896" ry="40.431"/><path fill="none" stroke="#5A5B5B" stroke-width="6" stroke-miterlimit="10" d="M162.714 47.11L137.266 55M49.07 105.5C60 106 71 108 82 110c2 0 5 1 7-1 7-10 12-20 19-30 8 4 15 9 23 12 10-15 21-29 31.857-43.72"/><path fill="#FFF" stroke="#5A5B5B" stroke-width="6" stroke-miterlimit="10" d="M163 47.3V72"/><path fill="none" stroke="#BFC1C1" stroke-width="2" stroke-miterlimit="10" d="M146 184.25l9-8.25M151 189.25l9-8.25M155 194.25l9-8.25"/><path fill="#FFF" d="M123.354 156.85c.57.552.72 1.453 1.024 2.16.298.687 2.196.094 1.932-.52-.343-.79-.523-1.782-1.163-2.402-.5-.483-2.324.248-1.793.762zM119.346 149.487c.1.17.188.323.333.458.267.25 1.18-.123.892-.39-.144-.136-.232-.29-.333-.46-.18-.3-1.117.018-.894.392z"/><path fill="#FFF" d="M117.16 148.14c.386.346.575.824.836 1.26.325.546.807.936 1.29 1.335.478.395 2.248-.352 1.804-.72-.457-.376-.93-.744-1.238-1.26-.276-.462-.478-.967-.887-1.333-.46-.41-2.248.32-1.805.72zM129.813 151.817c.826.435 1.776.72 2.438 1.406.393.406 2.2-.292 1.812-.697-.667-.69-1.608-.97-2.438-1.406-.382-.2-.875-.09-1.258.06-.085.032-.91.45-.553.637zM125.367 158.51c.02.168.062.33.084.5.058.43 2.004.025 1.933-.52-.02-.168-.062-.33-.084-.5-.058-.43-2.004-.025-1.933.52z"/><path fill="#FFF" d="M126.966 158.074c-.156-.604-.178-1.23-.333-1.833-.217-.843-2.15-.33-1.932.52.156.603.178 1.228.334 1.832.218.844 2.152.33 1.932-.518z"/><path fill="#FFF" d="M127.768 158.63c.762-.686 1.446-1.446 2.127-2.212.313-.354-.266-.515-.51-.516-.46 0-.97.165-1.28.514-.6.676-1.2 1.347-1.872 1.953-.29.26-.237.558.17.627.437.075 1.03-.063 1.365-.366z"/><path fill="#FFF" d="M126.883 158.324c-.1-.676-.318-1.324-.417-2-.134-.917-2.07-.43-1.932.518.1.676.317 1.324.417 2 .136.917 2.072.43 1.933-.518z"/><path fill="none" stroke="#4E6BB0" stroke-width="1.668" stroke-miterlimit="10" d="M114.44 146.25s11.52 7.75 10.79 21.25"/><path fill="none" stroke="#4E6BB0" stroke-width="1.502" stroke-miterlimit="10" d="M141.162 154.09s-16.79-2.09-19.723-14.272"/><path fill="#FFF" d="M118.26 147.34c1.004-.097 1.44.57 1.942 1.35.514.792 2.34.014 1.762-.88-.374-.576-.783-1.157-1.366-1.54-.647-.428-1.436-.518-2.192-.444-.445.043-1.007.31-1.055.817-.045.487.497.738.91.698z"/><path fill="#FFF" d="M117.656 147.184c1.073.124 1.72 1.457 2.363 2.19.434.496 2.28-.195 1.794-.75-.85-.97-1.552-2.31-2.97-2.474-.473-.055-1 .046-1.367.366-.285.25-.237.62.18.668z"/><path fill="#FFF" d="M120.88 145.51c.202-.097.4-.175.61-.246.116-.04.7-.227.643-.44-.058-.215-.654-.078-.775-.06-.762.123-1.44.442-2.177.645l.94.165c.12-.13.208-.24.362-.324l-1.602.094c-.266.205-.126.195.418-.03l.07.262c-.472.02-.556.058-.25.113l-.152-.175c-.015.094-.04.184-.08.27-.242.377.062.332.912-.138.05.06.1.116.15.174.034-.09.066-.197.138-.27-.774.768-1.623.125-1.125.395.062.033.102.074.138.13.253.39-.918.11.81-.13.23-.032.14.045.093-.05-.034-.073.022-.15.054-.21.188-.34.577-.248-.148-.162-.174-.06-.348-.116-.522-.174-.043.09-.103.17-.177.24-.205.136-.118.123.26-.038l.317.186c.27-.53.873-.715 1.366-.986.32-.177.257-.366-.1-.366-.463 0-.96.144-1.365.366-.65.358-1.445.646-1.802 1.348-.09.178.226.188.316.186 1.038-.037 2.504-.32 3.083-1.297.137-.232-.455-.183-.522-.175-.912.107-2.053.428-2.605 1.232-.604.88 1.385.54 1.665.464.474-.126 1.88-.708.903-1.236-.413-.224-1.016-.09-1.432.03-.505.144-1.044.352-1.24.88-.042.11.044.16.15.173.9.093 2.427-.154 2.667-1.202.028-.127-.032-.143-.15-.174-1.035-.268-2.254.168-3.086.782-.146.108-.105.238.07.262.987.13 2.172-.194 2.92-.864.23-.206-.046-.273-.236-.273-.464 0-.96.144-1.366.366-.258.14-.44.298-.637.51-.395.425.8.204.94.166.55-.152 1.094-.436 1.656-.525-.044-.166-.09-.333-.133-.5-.36.122-.715.258-1.06.423-.123.06-.685.373-.25.447.426.068.967-.083 1.348-.265z"/><path fill="#FFF" d="M119.52 144.35c-.344.18-.903.556-1.18.602-.327.055-.97.196-1.127.545-.153.338.67.236.78.22.98-.164 1.785-.62 2.652-1.066.166-.085.662-.42.228-.535-.42-.114-.977.043-1.352.236z"/><path fill="#FFF" d="M118.53 144.55c-.358.175-.726.327-1.084.5-.142.07-.677.395-.24.484.424.09.968-.066 1.348-.25.357-.175.725-.328 1.083-.5.143-.07.676-.395.242-.484-.428-.09-.97.067-1.35.25z"/><path fill="#FFF" d="M120 143.275c-.897.427-1.657 1.065-2.5 1.583-.21.13-.63.49-.195.655.406.156 1.004.014 1.36-.206.843-.517 1.605-1.157 2.5-1.583.237-.112.61-.497.196-.656-.435-.167-.964.02-1.36.207zM117.676 146.838c1.184.557 1.735 2.015 2.5 3 .303.392 2.145-.25 1.814-.676-.763-.983-1.313-2.44-2.5-3-.38-.18-.875-.054-1.25.086-.062.023-.907.43-.564.59z"/><path fill="#FFF" d="M117.85 147.787c.45.503 1.053.83 1.5 1.333.427.477 2.27-.214 1.8-.74-.45-.503-1.052-.83-1.5-1.333-.426-.477-2.27.214-1.8.74z"/><path fill="#FFF" d="M119.174 149.002c.45.367.86.78 1.193 1.257.343.492 2.104-.272 1.932-.52-.37-.53-.808-.997-1.308-1.408-.287-.234-.96-.01-1.248.096-.12.045-.85.343-.57.574z"/><path fill="#FFF" d="M119.752 150.006l.076.102c.25.353 1.173-.02.885-.424-.064-.09-.133-.154-.215-.23-.31-.288-1.154.173-.746.552zM131.67 152.708c-.527-.085-1.056-.164-1.583-.25-.468-.076-1.01.037-1.366.366-.29.27-.22.644.193.718 1.27.226 2.49.583 3.794.516.367-.02 1-.26 1.094-.673.102-.45-.577-.456-.84-.442-.956.05-1.94-.318-2.873-.484-.392.36-.782.722-1.174 1.083.527.085 1.056.164 1.583.25.468.076 1.01-.037 1.366-.366.288-.268.226-.65-.192-.72z"/><path fill="#FFF" d="M133.256 152.715c-.814-.168-1.704-.39-2.36-.93-.35-.288-.896-.193-1.28-.03-.196.084-.862.505-.512.794.845.693 1.92 1.018 2.975 1.235.455.094 1.02-.052 1.365-.366.3-.274.215-.62-.19-.705z"/><path fill="#FFF" d="M132.093 153.08c-.92.3-1.834.56-2.633 1.127-.298.21-.54.65-.132.896.404.243 1.014.114 1.378-.144.515-.365 1.11-.513 1.7-.706.33-.107.932-.39.81-.846-.115-.43-.793-.435-1.123-.328z"/><path fill="#FFF" d="M132.11 153.707c-.732.36-1.482.675-2.183 1.1-.318.19-.25.406.112.42.46.017.972-.128 1.365-.366.58-.35 1.21-.602 1.817-.9.15-.073.672-.4.237-.5-.424-.097-.97.06-1.35.247z"/><path fill="#FFF" d="M131.708 154.153c-.29.28-.575.502-.96.623-.094.03-.868.357-.575.554.324.216.924-.006 1.245-.106.77-.243 1.46-.65 2.04-1.21.317-.308-.28-.337-.458-.323-.42.035-.978.16-1.292.463z"/><path fill="#FFF" d="M131.863 154.05c-.35.165-.678.358-.996.58-.247.17-.497.39-.78.494-.08.028-.873.35-.58.535.314.2.934-.004 1.24-.118.827-.306 1.444-.886 2.224-1.257.147-.07.676-.395.242-.487-.428-.09-.966.068-1.35.25z"/><path fill="#FFF" d="M130.523 154.5c-.308.383-.614.77-.957 1.12-.266.27-.26.554.168.626.417.07 1.058-.05 1.365-.365.43-.438.826-.9 1.21-1.38.29-.36-.245-.514-.51-.514-.44 0-.99.157-1.277.514zM127.336 156.008c-.532.76-1.063 1.52-1.63 2.256-.736.952 1.106 1.097 1.59.473.648-.84 1.26-1.708 1.868-2.578.28-.4-.237-.69-.563-.72-.488-.04-.983.165-1.264.568z"/><path fill="#FFF" d="M125.53 156.357c-.16.652-.076 1.283.17 1.9.294.733 2.204.16 1.933-.517-.215-.537-.302-1.03-.163-1.6.19-.78-1.766-.493-1.94.217z"/><path fill="#FFF" d="M125.442 156.42c-.07.528-.084 1.054-.084 1.585 0 .96 1.95.622 1.95-.176 0-.532.015-1.058.083-1.585.123-.928-1.843-.632-1.948.176z"/><path fill="#FFF" d="M125.2 157.51v.916c0 .264 1.933 0 1.933-.518v-.917c0-.262-1.932 0-1.932.52z"/><path fill="#FFF" stroke="#F1CE24" stroke-width="2" stroke-miterlimit="10" d="M183 57h13v103h-13z"/><path fill="#BFC1C1" stroke="#BFC1C1" stroke-width="2" stroke-miterlimit="10" d="M201.595 149.706c-.83 1.104-2.396 1.326-3.5.496l-7.194-5.408c-1.103-.83-1.324-2.397-.494-3.5.83-1.104 2.396-1.326 3.5-.496l7.194 5.41c1.103.827 1.325 2.395.495 3.498z"/><ellipse fill="#FFF" stroke="#4E6BB0" stroke-width="2" stroke-miterlimit="10" cx="178.568" cy="169.352" rx="27.697" ry="27.853"/><path fill="#BFC1C1" stroke="#BFC1C1" stroke-width="2" stroke-miterlimit="10" d="M178.568 156l.225-9.686M163.065 169.5l-8.42.195M178.793 193.075l-.225-9.575M203 170h-10"/><ellipse fill="none" stroke="#4E6BB0" stroke-width="2" stroke-miterlimit="10" cx="178.793" cy="169.695" rx="24.15" ry="23.38"/><path fill="#5A5B5B" stroke="#5A5B5B" stroke-width="2" stroke-miterlimit="10" d="M177.793 169.695L188.5 155M177.916 168.41l6.53 9.18"/><path fill="none" d="M0 0h284v209H0z"/></svg>