<svg xmlns="http://www.w3.org/2000/svg" width="546" height="355.334" viewBox="0 0 546 355.334"><radialGradient id="a" cx="186.475" cy="227.191" r="202.035" gradientTransform="matrix(-1.28 0 0 -1.024 477.688 438.988)" gradientUnits="userSpaceOnUse"><stop offset="0" stop-color="#7FD0E8"/><stop offset=".181" stop-color="#83D1E9"/><stop offset=".342" stop-color="#8DD5EB"/><stop offset=".495" stop-color="#A0DCEE"/><stop offset=".644" stop-color="#B9E5F2"/><stop offset=".789" stop-color="#DAF1F8"/><stop offset=".921" stop-color="#FFF"/><stop offset="1" stop-color="#FFF"/></radialGradient><path fill="none" stroke="#999B9E" stroke-width="4" stroke-miterlimit="10" d="M-674 686.334h486"/><path fill="none" stroke="#605C52" stroke-width="3" stroke-miterlimit="10" d="M-625.5 549.334V554.333M-601 582.834h11M-595.438 656.584l-.156-98.375-8.28-9.376H-629"/><path fill="#FFF" stroke="#FFF" stroke-width="3" stroke-miterlimit="10" d="M-586.833 545.2c0 7.073 4.842 13.888 11.41 13.888 4.04 0 2.464.654 9.454.36 7.023.57 8.533.386 13.48.386h14.27c4.592 0 9.55-.92 15.936-.92 13.87 0 25.118-11.918 25.118-26.053 0-14.135-11.247-25.823-25.118-25.823-10.003 0-18.466 4.654-22.506 13.275-2.706-.795-5.02-.594-7.7-.594-8.296 0-15.285 5.86-17.446 13.898-1.523-.756-3.22-1.2-5.013-1.2-6.568 0-11.883 5.71-11.883 12.783zM-327.783 472.334c0 6.08 4.12 11.938 9.708 11.938 3.438 0 2.096.523 8.042.27 5.974.49 7.258.292 11.468.292h12.14c3.907 0 8.126-.75 13.558-.75 11.8 0 21.368-10.225 21.368-22.375s-9.567-22.19-21.367-22.19c-8.51 0-15.71 4.007-19.147 11.417-2.302-.684-4.27-.507-6.55-.507-7.06 0-13.005 5.036-14.843 11.946-1.296-.65-2.74-1.03-4.265-1.03-5.59 0-10.11 4.908-10.11 10.988z"/><path fill="none" stroke="#605C52" stroke-width="2" stroke-miterlimit="10" d="M-598 585.334h5"/><ellipse fill="#FFF" stroke="#FFF" stroke-width="3" stroke-miterlimit="10" cx="-625.438" cy="561.021" rx="6.438" ry="6.688"/><path fill="#C1C1C1" stroke="#C1C1C1" stroke-width="4" stroke-miterlimit="10" d="M-511 561.334h302v119h-302z"/><path fill="#C1C1C1" stroke="#C1C1C1" stroke-width="4" stroke-miterlimit="10" d="M-214 564.334h5v119h-5z"/><path fill="#A5A39D" stroke="#A5A39D" stroke-miterlimit="10" d="M-354.5 627.834v-4h12v4zM-519.5 684.834v-8h312v8z"/><path opacity=".59" fill="#A5A39D" stroke="#A5A39D" stroke-miterlimit="10" d="M-512.5 546.834h305v19h-305z"/><path fill="#82BEDF" stroke="#82BEDF" stroke-width="3.199" stroke-miterlimit="10" d="M-522.75 548.834H-198v12.5h-324.75z"/><path fill="#1AACE3" stroke="#1AACE3" stroke-width="4" stroke-miterlimit="10" d="M-496 616.334h-15v45h66v-45h-51M-348 617.334h139v45h-139z"/><path fill="none" stroke="#656259" stroke-width="2" stroke-miterlimit="10" d="M-401 675.334v-59"/><path fill="#656259" stroke="#656259" stroke-width="3" stroke-miterlimit="10" d="M-604.5 682.834v-5.5l2.75-1.5H-588l1.5 1.375v5.624z"/><path fill="#A5A39D" stroke="#A5A39D" stroke-width="4" stroke-miterlimit="10" d="M-438 611.334h72v63h-72z"/><path fill="#1AACE3" stroke="#1AACE3" stroke-width="4" stroke-miterlimit="10" d="M-434 615.334h29v57h-29zM-397 615.334h27v57h-27z"/><path fill="#80C4EC" stroke="#80C4EC" stroke-width="5.611" stroke-miterlimit="10" d="M-418.616 676.834L-404 612.438"/><path fill="#656259" stroke="#656259" stroke-width="4" stroke-miterlimit="10" d="M-599 675.334v-16.217l2.5-1.783h4.5v18z"/><path fill="#FFF" stroke="#FFF" stroke-width="2" stroke-miterlimit="10" d="M-488.783 418.546c0 5.008 3.4 9.832 8.01 9.832 2.837 0 1.73.677 6.637.47 4.93.404 5.99.486 9.463.486h10.02c3.223 0 6.704-.864 11.186-.864 9.738 0 17.633-8.545 17.633-18.55 0-10.008-7.896-18.337-17.633-18.337-7.023 0-12.964 3.27-15.8 9.372-1.9-.563-3.525-.434-5.406-.434-5.825 0-10.732 4.142-12.25 9.833-1.07-.535-2.26-.854-3.518-.854-4.612 0-8.343 4.04-8.343 9.046z"/><path fill="#DFDFDD" d="M-526 543.334h329v4h-329z"/><path fill="#82BEDF" stroke="#82BEDF" stroke-width="2.494" stroke-miterlimit="10" d="M-534.75 536h336.417v7.334H-534.75z"/><path opacity=".34" fill="#6490A3" d="M-253.5 535.5h56.375v27.334H-253.5z"/><path opacity=".4" fill="#7C7C7B" stroke="#7C7C7B" stroke-miterlimit="10" d="M-253.5 676.834h46v8h-46z"/><path fill="#80C4EC" stroke="#80C4EC" stroke-width="16.843" stroke-miterlimit="10" d="M-499.833 668.668L-478 610.334"/><path fill="#80C4EC" stroke="#80C4EC" stroke-width="10" stroke-miterlimit="10" d="M-481.833 669.668L-460 611.334"/><path fill="#C1C1C1" d="M-512 663.334h45v8h-45zM-493 600.334h44v14h-44z"/><path fill="#80C4EC" stroke="#80C4EC" stroke-width="16.843" stroke-miterlimit="10" d="M-316.833 669.668L-295 611.334"/><path fill="#80C4EC" stroke="#80C4EC" stroke-width="10" stroke-miterlimit="10" d="M-298.833 670.668L-277 612.334"/><path fill="#C1C1C1" d="M-313 601.334h44v14h-44zM-328 664.334h45v8h-45z"/><path fill="#80C4EC" stroke="#80C4EC" stroke-width="16" stroke-miterlimit="10" d="M-431.667 675.73l14.617-64.396"/><path fill="#A5A39D" d="M-432 609.334h29v4h-29zM-440 650.334h4v29h-4zM-403 611.334h4v29h-4z"/><path fill="#80C4EC" stroke="#80C4EC" stroke-width="5.359" stroke-miterlimit="10" d="M-380.616 674.834l13.96-61.5"/><path fill="#A5A39D" stroke="#A5A39D" stroke-miterlimit="10" d="M-500.5 671.834v-4h12v4z"/><path fill="#A5A39D" d="M-403 651.334h4v29h-4z"/><path fill="#A5A39D" d="M-439 674.334h70v4h-70zM-438 609.334h72v4h-72z"/><path fill="#A5A39D" d="M-368 612.334h4v29h-4z"/><path fill="#A5A39D" stroke="#A5A39D" stroke-miterlimit="10" d="M-516.5 577.834v-4h11v4zM-516.5 583.834v-4h7v4zM-362.5 589.834v-4h16v4zM-212.5 600.834v-4h7v4zM-352.5 596.834v-4h12v4zM-217.5 608.834v-4h12v4zM-594.5 673.834v-4h4v4z"/><path opacity=".22" fill="#A5A39D" stroke="#A5A39D" stroke-miterlimit="10" d="M-253.5 561.834h45v123h-45z"/><g><path fill="#3F3F3F" d="M-361 682.917c0 .782-.634 1.417-1.417 1.417h-9.167c-.782 0-1.417-.635-1.417-1.417v-.166c0-.78.633-1.416 1.416-1.416h9.167c.782 0 1.417.635 1.417 1.417v.167z"/><path fill="#484949" d="M-370 658.334h9v24h-9z"/><ellipse fill="#DDAE8D" cx="-363.083" cy="661.238" rx="2.417" ry="2.403"/><path fill="#A39FED" stroke="#A39FED" stroke-width="3.485" stroke-miterlimit="10" d="M-360 657.97c0 2.41-2.456 4.364-5.486 4.364h-.028c-3.03 0-5.486-1.953-5.486-4.363V645.7c0-2.41 2.456-4.363 5.486-4.363h.028c3.03 0 5.486 1.953 5.486 4.363v12.273z"/><ellipse fill="#DDAE8D" cx="-366" cy="635.479" rx="5.5" ry="5.231"/><ellipse fill="#DDAE8D" cx="-366.083" cy="640.238" rx="2.417" ry="2.403"/><path fill="#484949" d="M-372.296 634.334h8.9l1.114 4.062 2.225-.25.557-4.857-.974-1.83-1.947-1.17-1.67-.956h-2.643l-2.573.625-.765.686"/><g><path fill="#3F3F3F" d="M-349 683.334c0 .553-.448 1-1 1h-9c-.552 0-1-.447-1-1 0-.553.448-1 1-1h9c.552 0 1 .447 1 1z"/><path fill="#484949" d="M-357 663.334h8v19h-8z"/><ellipse fill="#E79F19" cx="-350.726" cy="665.348" rx="2.26" ry="1.977"/><path fill="#385052" d="M-348 661.334c0 2.762-2.24 5-5 5s-5-2.238-5-5v-7c0-2.762 2.24-5 5-5s5 2.238 5 5v7z"/><ellipse fill="#E79F19" cx="-353.454" cy="644.172" rx="5.144" ry="4.299"/><ellipse fill="#E79F19" cx="-353.531" cy="648.085" rx="2.26" ry="1.976"/><path fill="#484949" d="M-359.342 643.334h8.325l1.04 3.29 2.08-.232.522-4.006-.91-1.51-1.82-.858-1.562-.684h-2.472l-2.405.408-.716.563"/></g><g><path fill="#3F3F3F" d="M-334 682.917c0 .782-.634 1.417-1.417 1.417h-9.167c-.782 0-1.417-.635-1.417-1.417v-.166c0-.78.633-1.416 1.416-1.416h9.167c.782 0 1.417.635 1.417 1.417v.167z"/><path fill="#484949" d="M-343 658.334h9v24h-9z"/><ellipse fill="#DDAE8D" cx="-336.083" cy="661.238" rx="2.417" ry="2.403"/><path fill="#385052" d="M-333 657.97c0 2.41-2.456 4.364-5.486 4.364h-.028c-3.03 0-5.486-1.953-5.486-4.363V645.7c0-2.41 2.456-4.363 5.486-4.363h.028c3.03 0 5.486 1.953 5.486 4.363v12.273z"/><ellipse fill="#DDAE8D" cx="-339" cy="635.479" rx="5.5" ry="5.231"/><ellipse fill="#DDAE8D" cx="-339.083" cy="640.238" rx="2.417" ry="2.403"/><path fill="#484949" d="M-345.296 634.334h8.9l1.114 4.062 2.225-.25.557-4.857-.974-1.83-1.947-1.17-1.67-.956h-2.643l-2.573.625-.765.686"/></g><g><path fill="#3F3F3F" d="M-320 682.917c0 .782-.634 1.417-1.417 1.417h-9.167c-.782 0-1.417-.635-1.417-1.417v-.166c0-.78.633-1.416 1.416-1.416h9.167c.782 0 1.417.635 1.417 1.417v.167z"/><path fill="#484949" d="M-329 658.334h9v24h-9z"/><ellipse fill="#DDAE8D" cx="-322.083" cy="661.238" rx="2.417" ry="2.403"/><path fill="#ED776D" stroke="#ED776D" stroke-width="2" stroke-miterlimit="10" d="M-319 657.97c0 2.41-2.456 4.364-5.486 4.364h-.028c-3.03 0-5.486-1.953-5.486-4.363V645.7c0-2.41 2.456-4.363 5.486-4.363h.028c3.03 0 5.486 1.953 5.486 4.363v12.273z"/><ellipse fill="#DDAE8D" cx="-325" cy="635.479" rx="5.5" ry="5.231"/><ellipse fill="#DDAE8D" cx="-325.083" cy="640.238" rx="2.417" ry="2.403"/><path fill="#484949" d="M-331.296 634.334h8.9l1.114 4.062 2.225-.25.557-4.857-.974-1.83-1.947-1.17-1.67-.956h-2.643l-2.573.625-.765.686"/></g><g><path fill="#3F3F3F" d="M-307 683.334c0 .553-.448 1-1 1h-9c-.552 0-1-.447-1-1 0-.553.448-1 1-1h9c.552 0 1 .447 1 1z"/><path fill="#484949" d="M-315 663.334h8v19h-8z"/><ellipse fill="#DDAE8D" cx="-309.307" cy="665.323" rx="2.118" ry="1.979"/><path fill="#ED776D" stroke="#ED776D" stroke-width="2" stroke-miterlimit="10" d="M-306 662.742c0 1.984-2.153 3.592-4.81 3.592h-.382c-2.656 0-4.81-1.607-4.81-3.592v-9.816c0-1.984 2.154-3.592 4.81-3.592h.383c2.657 0 4.81 1.607 4.81 3.592v9.816z"/><ellipse fill="#DDAE8D" cx="-311.864" cy="644.12" rx="4.821" ry="4.306"/><ellipse fill="#DDAE8D" cx="-311.937" cy="648.038" rx="2.118" ry="1.979"/><path fill="#484949" d="M-317.383 643.334h7.803l.975 3.266 1.95-.245.488-4.017-.853-1.516-1.707-.832-1.463-.656h-2.316l-2.256.38-.67.575"/></g><g><path fill="#3F3F3F" d="M-292 682.917c0 .782-.634 1.417-1.417 1.417h-9.167c-.782 0-1.417-.635-1.417-1.417v-.166c0-.78.633-1.416 1.416-1.416h9.167c.782 0 1.417.635 1.417 1.417v.167z"/><path fill="#484949" d="M-301 658.334h9v24h-9z"/><ellipse fill="#E79F19" cx="-294.083" cy="661.238" rx="2.417" ry="2.403"/><path fill="#FFDF8E" stroke="#FFDF8E" stroke-width="2" stroke-miterlimit="10" d="M-291 657.97c0 2.41-2.456 4.364-5.486 4.364h-.028c-3.03 0-5.486-1.953-5.486-4.363V645.7c0-2.41 2.456-4.363 5.486-4.363h.028c3.03 0 5.486 1.953 5.486 4.363v12.273z"/><ellipse fill="#E79F19" cx="-297" cy="635.479" rx="5.5" ry="5.231"/><ellipse fill="#E79F19" cx="-297.083" cy="640.238" rx="2.417" ry="2.403"/><path fill="#484949" d="M-303.296 634.334h8.9l1.114 4.062 2.225-.25.557-4.857-.974-1.83-1.947-1.17-1.67-.956h-2.643l-2.573.625-.765.686"/></g><g><path fill="#3F3F3F" d="M-381 682.917c0 .782-.634 1.417-1.417 1.417h-9.167c-.782 0-1.417-.635-1.417-1.417v-.166c0-.78.633-1.416 1.416-1.416h9.167c.782 0 1.417.635 1.417 1.417v.167z"/><path fill="#484949" d="M-390 658.334h9v24h-9z"/><ellipse fill="#DDAE8D" cx="-383.083" cy="661.238" rx="2.417" ry="2.403"/><path fill="#385052" d="M-380 657.97c0 2.41-2.456 4.364-5.486 4.364h-.028c-3.03 0-5.486-1.953-5.486-4.363V645.7c0-2.41 2.456-4.363 5.486-4.363h.028c3.03 0 5.486 1.953 5.486 4.363v12.273z"/><ellipse fill="#DDAE8D" cx="-386" cy="635.479" rx="5.5" ry="5.231"/><ellipse fill="#DDAE8D" cx="-386.083" cy="640.238" rx="2.417" ry="2.403"/><path fill="#484949" d="M-392.296 634.334h8.9l1.114 4.062 2.225-.25.557-4.857-.974-1.83-1.947-1.17-1.67-.956h-2.643l-2.573.625-.765.686"/></g></g><g><path fill="#E6E6E6" stroke="#656259" stroke-width="3.001" stroke-miterlimit="10" d="M664.896 429.334h522.987v274H664.896z"/><path fill="#FFF" stroke="#656259" stroke-width="3" stroke-miterlimit="10" d="M664.896 409.834h522.987v31H664.896z"/><path fill="#FFF" d="M810 455.334h349v21H810z"/><path opacity=".44" fill="#656259" stroke="#656259" stroke-width="6" stroke-miterlimit="10" d="M839.315 465.834h81.5"/><path fill="#CCC" stroke="#656259" stroke-width="3" stroke-miterlimit="10" d="M664.896 392.938h522.987V410H664.896z"/><path fill="#FFDF8E" stroke="#656259" stroke-width="2" stroke-miterlimit="10" d="M696.72 401.64c0 2.786-2.224 5.042-4.963 5.042s-4.945-2.256-4.945-5.043 2.206-5.044 4.945-5.044 4.964 2.256 4.964 5.043z"/><path fill="#9EEFA6" stroke="#656259" stroke-width="2" stroke-miterlimit="10" d="M711.72 401.64c0 2.786-2.224 5.042-4.963 5.042s-4.945-2.256-4.945-5.043 2.206-5.044 4.945-5.044 4.964 2.256 4.964 5.043z"/><path fill="#ED776D" stroke="#605C52" stroke-width="2" stroke-miterlimit="10" d="M681.72 401.64c0 2.786-2.224 5.042-4.963 5.042s-4.945-2.256-4.945-5.043 2.206-5.044 4.945-5.044 4.964 2.256 4.964 5.043z"/><path fill="#A39FED" stroke="#656259" stroke-width="3.485" stroke-miterlimit="10" d="M694.82 426c0 4.724-3.986 8.547-8.895 8.547-4.91 0-8.862-3.823-8.862-8.547 0-4.723 3.952-8.546 8.862-8.546s8.894 3.823 8.894 8.546z"/><path fill="#656259" stroke="#656259" stroke-width="6" stroke-miterlimit="10" d="M701.812 425.334h40.75"/><path fill="#FFF" d="M958 494.334h201v151H958zM810 494.334h121.815v89H810z"/><path opacity=".45" fill="#656259" stroke="#656259" stroke-width="2.791" stroke-miterlimit="10" d="M831.904 466.334c0 3.767-3.206 6.814-7.153 6.814-3.95 0-7.128-3.048-7.128-6.814s3.18-6.814 7.13-6.814c3.946 0 7.152 3.048 7.152 6.814z"/><path fill="#FFDF8E" stroke="#FFDF8E" stroke-width="11.339" stroke-miterlimit="10" d="M905.147 538.834c0 15.443-12.903 27.944-28.793 27.944-15.89 0-28.687-12.5-28.687-27.944 0-15.442 12.796-27.944 28.687-27.944 15.89 0 28.793 12.502 28.793 27.944z"/><path fill="#ED776D" stroke="#ED776D" stroke-width="2" stroke-miterlimit="10" d="M876 541.334v31l14.25-2.5 7.625-6 4.313-4.5z"/><path fill="#8C685D" stroke="#8C685D" stroke-width="2.09" stroke-miterlimit="10" d="M876.934 540.134l26.9 18 6.12-13.84-.77-10.11-1.395-6.366z"/><path fill="#FFDF8E" d="M818 502.334h8v7.833h-8z"/><path fill="#8C685D" d="M818 513.334h8v8h-8z"/><path fill="#ED776D" d="M818 524.334h8v8h-8z"/><path opacity=".65" fill="#656259" stroke="#656259" stroke-width="1.737" stroke-miterlimit="10" d="M827.728 506.25h10.824M827.658 517.334h10.824M827.81 528.334h10.823"/><path opacity=".45" fill="#656259" stroke="#656259" stroke-width="2.791" stroke-miterlimit="10" d="M1089.904 533.334c0 3.767-3.206 6.814-7.153 6.814-3.95 0-7.128-3.048-7.128-6.814s3.18-6.814 7.13-6.814c3.946 0 7.152 3.048 7.152 6.814zM1062.57 533.334c0 3.767-3.206 6.814-7.153 6.814-3.95 0-7.13-3.048-7.13-6.814s3.18-6.814 7.13-6.814c3.947 0 7.153 3.048 7.153 6.814zM1117.238 533.334c0 3.767-3.206 6.814-7.153 6.814-3.95 0-7.13-3.048-7.13-6.814s3.18-6.814 7.13-6.814c3.947 0 7.153 3.048 7.153 6.814zM1035.154 533.334c0 3.767-3.206 6.814-7.153 6.814-3.95 0-7.128-3.048-7.128-6.814s3.18-6.814 7.13-6.814c3.946 0 7.152 3.048 7.152 6.814zM1089.904 561.52c0 3.767-3.206 6.814-7.153 6.814-3.95 0-7.128-3.048-7.128-6.814s3.18-6.814 7.13-6.814c3.946 0 7.152 3.048 7.152 6.814zM1062.57 561.52c0 3.767-3.206 6.814-7.153 6.814-3.95 0-7.13-3.048-7.13-6.814s3.18-6.814 7.13-6.814c3.947 0 7.153 3.048 7.153 6.814zM1117.238 561.52c0 3.767-3.206 6.814-7.153 6.814-3.95 0-7.13-3.048-7.13-6.814s3.18-6.814 7.13-6.814c3.947 0 7.153 3.048 7.153 6.814zM1035.154 561.52c0 3.767-3.206 6.814-7.153 6.814-3.95 0-7.128-3.048-7.128-6.814s3.18-6.814 7.13-6.814c3.946 0 7.152 3.048 7.152 6.814zM1089.945 587.334c0 3.767-3.206 6.814-7.153 6.814-3.95 0-7.13-3.048-7.13-6.814s3.18-6.814 7.13-6.814c3.947 0 7.153 3.048 7.153 6.814zM1062.61 587.334c0 3.767-3.205 6.814-7.152 6.814-3.95 0-7.13-3.048-7.13-6.814s3.18-6.814 7.13-6.814c3.947 0 7.153 3.048 7.153 6.814zM1035.195 587.334c0 3.767-3.206 6.814-7.153 6.814-3.95 0-7.13-3.048-7.13-6.814s3.18-6.814 7.13-6.814c3.947 0 7.153 3.048 7.153 6.814z"/><path opacity=".45" fill="#656259" stroke="#656259" stroke-width="6.524" stroke-miterlimit="10" d="M1003.154 528.334c0 8.966-7.358 16.222-16.42 16.222-9.066 0-16.362-7.256-16.362-16.222 0-8.964 7.296-16.222 16.363-16.222 9.06 0 16.42 7.258 16.42 16.222z"/><path fill="#FFDF8E" stroke="#656259" stroke-width="3" stroke-miterlimit="10" d="M760.27 615.99c0 54.217-45.48 98.104-101.487 98.104-56.012 0-101.114-43.887-101.114-98.103 0-54.21 45.102-98.1 101.113-98.1 56.006 0 101.487 43.89 101.487 98.1z"/><path fill="#ED776D" stroke="#656259" stroke-width="2" stroke-miterlimit="10" d="M658.58 615.334l1.42 98.76L676.167 713 701 705.835l17.9-10.044 14.6-12.623 6.89-9.67z"/><path fill="#8C685D" stroke="#656259" stroke-width="2.397" stroke-miterlimit="10" d="M660 613.99l81.305 59.114 8.934-17.602 9.03-23.168.14-29.566-4.75-17.812z"/><path fill="#C1C1C1" stroke="#C1C1C1" stroke-width="4" stroke-miterlimit="10" d="M179 262.334h322M273 262.334v-119M339 262.334v-168M427 263.334v-161"/><path fill="none" stroke="#FBAC25" stroke-width="4" stroke-miterlimit="10" d="M212.667 224.667c13.536-11.333 18.84-52.81 38-41.833 16 9.167 26.895 24.472 43.333 20 22.667-6.167 45-108.5 70-82.833 26.843 27.56 53.333 32 86.667 28"/><path fill="none" stroke="#E6593B" stroke-width="4" stroke-miterlimit="10" d="M219 262.667s18.667-16 32-22.667c1.855-.928 10.933-12.616 17.333-31.816 0 0 13.333-69.517 26-50.85 13.57 19.997 33.764 64.003 55.667 54 42.333-19.333 51.667-64 82.333-29s50 11 50 11"/><path fill="#8C685D" d="M133 213.334l-54.783-75.402c16.658-12.103 34.193-17.8 54.783-17.8v93.202z"/><path fill="#E6593B" d="M133 213.334l-88.64 28.8c-12.726-39.163.542-79.998 33.856-104.203L133 213.335z"/><path fill="#FBAC25" d="M133 213.334V120.13c51.474 0 93.203 41.73 93.203 93.204s-41.73 93.203-93.203 93.203c-41.18 0-75.916-25.237-88.64-64.4L133 213.333z"/></g></svg>