<!DOCTYPE svg PUBLIC "-//W3C//DTD SVG 1.1//EN" "http://www.w3.org/Graphics/SVG/1.1/DTD/svg11.dtd" [
	<!ENTITY ns_flows "http://ns.adobe.com/Flows/1.0/">
]><svg xmlns="http://www.w3.org/2000/svg" width="490" height="241" viewBox="92 59.666 490 241"><radialGradient id="a" cx="-305.228" cy="433.324" r="202.039" gradientTransform="matrix(-1.28 0 0 1.024 -79.692 -255.724)" gradientUnits="userSpaceOnUse"><stop offset="0" stop-color="#7FD0E8"/><stop offset=".181" stop-color="#83D1E9"/><stop offset=".342" stop-color="#8DD5EB"/><stop offset=".495" stop-color="#A0DCEE"/><stop offset=".644" stop-color="#B9E5F2"/><stop offset=".789" stop-color="#DAF1F8"/><stop offset=".921" stop-color="#FFF"/><stop offset="1" stop-color="#FFF"/></radialGradient><path fill="none" stroke="#8C685D" stroke-width="3" stroke-miterlimit="10" d="M289 223.8l58-3.967 89 8.5 70-8.5 35.5 4.25"/><ellipse fill="#8C685D" stroke="#8C685D" stroke-width="3" stroke-miterlimit="10" cx="345" cy="219" rx="3.5" ry="3.482"/><ellipse fill="#8C685D" stroke="#8C685D" stroke-width="3" stroke-miterlimit="10" cx="436" cy="228.333" rx="3.5" ry="3.482"/><ellipse fill="#8C685D" stroke="#8C685D" stroke-width="3" stroke-miterlimit="10" cx="506" cy="219.833" rx="3.5" ry="3.482"/><path fill="none" stroke="#E6593B" stroke-width="3" stroke-miterlimit="10" d="M268.5 221.833l55.5-20.5 50 10.25 12-16.75 25-10 21.5 4.5 46.5-10.5 54 22"/><ellipse fill="#E6593B" stroke="#E6593B" stroke-width="3" stroke-miterlimit="10" cx="324" cy="201.333" rx="3.5" ry="3.482"/><ellipse fill="#E6593B" stroke="#E6593B" stroke-width="3" stroke-miterlimit="10" cx="374" cy="211.583" rx="3.5" ry="3.482"/><ellipse fill="#E6593B" stroke="#E6593B" stroke-width="3" stroke-miterlimit="10" cx="386" cy="193.815" rx="3.5" ry="3.482"/><ellipse fill="#E6593B" stroke="#E6593B" stroke-width="3" stroke-miterlimit="10" cx="411" cy="184.851" rx="3.5" ry="3.482"/><ellipse fill="#E6593B" stroke="#E6593B" stroke-width="3" stroke-miterlimit="10" cx="432.5" cy="189.333" rx="3.5" ry="3.482"/><ellipse fill="#E6593B" stroke="#E6593B" stroke-width="3" stroke-miterlimit="10" cx="479" cy="178.833" rx="3.5" ry="3.482"/><ellipse fill="#E6593B" stroke="#E6593B" stroke-width="3" stroke-miterlimit="10" cx="533" cy="200.833" rx="3.5" ry="3.482"/><path fill="none" stroke="#C1C1C1" stroke-width="4" stroke-miterlimit="10" d="M251 244h322M284 244V76"/><path fill="none" stroke="#FBAC25" stroke-width="4" stroke-miterlimit="10" d="M284.667 206.333c13.536-11.333 18.84-52.81 38-41.833 16 9.167 26.896 24.472 43.333 20 22.667-6.167 45-108.5 70-82.833 26.843 27.56 53.333 32 86.667 28"/><path fill="#8C685D" d="M205 195l-54.783-75.402c16.658-12.103 34.193-17.8 54.783-17.8V195z"/><path fill="#E6593B" d="M205 195l-88.64 28.8c-12.726-39.162.542-79.998 33.856-104.203L205 195z"/><path fill="#FBAC25" d="M205 195v-93.203c51.474 0 93.203 41.73 93.203 93.203 0 51.474-41.73 93.203-93.203 93.203-41.18 0-75.916-25.237-88.64-64.4L205 195z"/><path fill="none" d="M91.5 59.833h490v241h-490z"/></svg>