<svg xmlns="http://www.w3.org/2000/svg" width="1444" height="768" viewBox="0 0 1444 768"><path fill="#FAFAFA" d="M6 2h1444v768H6z"/><path fill="#D8D8D8" d="M75.5 567.048L6 526l-6-84.667 61.875 14.847"/><path fill="#D8D8D8" d="M61.875 456.18L75.5 567.048l430.29-55.483L1240 668.75V509l-738.397-95.617"/><path fill="#EDEDED" d="M17.127 173.598l16.5 292.152 419.978-48.367L1382.25 530l10.308-482.396-932.954 139.618"/><path fill="#F2F2F2" d="M0 444.333l33.626 20.417-16.5-292.152L0 181"/><path fill="#F7F7F7" d="M577 218v185l578 51.66V166"/><path fill="#EDEDED" d="M0 526l77.583 45.78L410.107 768H0M254.268 652.967l-13.996-196.322L409 436.585V384l166.1 8.017 7.857 64.645L830 495.584V547s15.086 12.58-202.403 15.58-10.5 130.492-10.5 130.492l-172.49 61.497-190.34-101.603z"/><path fill="#FAFAFA" d="M248.268 646.967l-13.996-196.322L403 430.585V378l166.1 8.017 7.856 64.645L824 489.584V541s15.086 12.58-202.403 15.58-10.5 130.492-10.5 130.492L438.605 748.57 248.268 646.966z"/><path fill="#F2F2F2" d="M416.107 541.066c188.99 29.012 201 21.766 201 21.766"/><path fill="#EDEDED" d="M248.115 627.075l188.99 96.425 147.26-54.75 26.732 18.322-172.492 61.497-190.337-101.603"/><path fill="none" stroke="#EAEAEA" stroke-miterlimit="10" d="M824 489.584S716.092 505.8 671.094 504.19s-200.99-9.94-200.99-9.94"/><path fill="#EDEDED" d="M344.11 634.325l71.997 39.133 6.893-3.895-9.25-185.032L510 434v-7l-75.75-11-102.375 50.5"/><path fill="#F7F7F7" d="M387.667 445l41.94 5.66L476.332 429 432 424.333M234.272 229.578L317 235.05 331.875 373l-91.603 10.313"/><g><path fill="#F6C29D" d="M990.166 299.167l-57.083-48.083L924 241v-12l8-12 9-9 16-8h12l14 7 7 9 261.166 163c-3.666-5.667-3.166-12-3.166-12v-15s4.5-16.5 6-19.25l1.5-2.75 5.75-9.75 7-6.75 4.75-3 28.5 31.5 12.25 15.25 68.5 83-38 140-2 7s-9.25 20.75-10.5 22.5l-1.25 1.75-2 5-3.5 6.5 11.25 27.5-214.25 73s-56.75-9.5-88.25-40.75-57.5-70.25-57.5-70.25-6.54-15.667-21.25-41l-13.5-23.25-3.75-5-35.25-60.5s-3.5-6.25 0-14L906 461l6.25-8.25s8.75-8.75 11.25-9.5 7.5-4 13.25-4.25l5.75-.25L929.25 417l1.25-18s7-13.5 15.25-19.75 19.25-10 19.25-10L949.75 343s-5.5-26 12.25-34.75 19.5-7.5 26.75-7.25l7.25.25-5.834-2.083z"/><path fill="#DEA67B" d="M1198.505 592.044L1292 469.5s-38.327-68.407-38.33-75.953l-.003-7.546L1008 568.335s118.666 4.666 144.333 10.333l25.667 5.667 20.505 7.71"/><path fill="#5E6C79" d="M1105.166 751l258.75-84.667L1412 766h-303"/><ellipse fill="#FAFAFA" cx="1202.511" cy="770.033" rx="38.585" ry="34.033"/><g><path fill="#DEA67B" d="M952.458 567s6.854-28 11.854-32.75 3.72-3.25 4.97-4.75 1.233-1.5 1.233-1.5l12.742-16.5 3.246-1.75 3.123 2.25 2.373 1.75V498s7.25-11.25 4.75-17.75-5.5-9.25-5.5-9.25l.5-20.5s18-7.75 24.75-17.5 6.25-13 7.25-18.25l1-5.25-2.5-4.75s-21.25-14.25-21-16-7.75-4-9.25-6.75.25-12.5.25-12.5 20-1.5 27.25-15.5 5.25-26.125 5.25-26.125-4.876-8.875-8.626-11.75l-3.75-2.875-6.5-5s-10.375-6.75-13.25-6.875-.5-84.875-.5-84.875l-18.25-14.75-9.5-2.125-14.374 4.25L939.5 210l-6.75 6.75-3.875 6.125-2.875 6.25-.625 9.25 4.75 9.625 5.75 4.5 3.75 4.625L972.5 284.5l9.625 8.25 5.5 4.125 1.5.75 1.375 1.5.625 1.125-.5 1.125-9.75.5-5.687.56-5.688 2.69-5.375 3-3.375 2.125-5.875 6.375-4.375 10.625-1.25 5 .25 9.75 13 21.5.875 1.375 2.125 3.875s1.5.875-1.125 1.75-14.625 5.25-19.5 10.375-9.25 9.375-11.25 15.5-2.875 21.5-2.875 21.5l12 20s-10.75 2.375-14 3.875S912 454 910.625 456.875 903.5 463.25 903 473s2.75 14.125 2.75 14.125L952.458 567z"/><path fill="#31363A" d="M991 160v-28s-1.25-12.25 19-15.5c24.925-4 25-3.5 25-3.5l84.5-3 99 2.5 29.5 3.5 10 2 8.3 4 4.7 6v15l.403 26H1274v30h-3l.5 348.667-1.833 7.5-3.333 4-6.833 4.333-13.666 4-13.5 1.167-22.667 2.166-30.333.948-34 .887-76.667-2.334-32-1.333-22-2.667-13.833-4.666-6.667-5.834-2.685-5.5-1.482-10V271l-2-.167V199l3-.5V160z"/><path fill="#F2F2F2" d="M1002 150h257v376h-257z"/><ellipse fill="#4C4C4C" cx="1132.549" cy="133.5" rx="9.049" ry="7.5"/><path opacity=".3" fill="#5E6C79" d="M1130 230.54c0 2.464-5.373 4.46-12 4.46h-81c-6.627 0-12-1.997-12-4.46v-46.08c0-2.463 5.373-4.46 12-4.46h81c6.627 0 12 1.998 12 4.46v46.08z"/><path fill="#D17905" d="M1129.25 229.46c0 2.507-5.438 4.54-12.143 4.54h-81.965c-6.705 0-12.143-2.033-12.143-4.54v-46.92c0-2.508 5.437-4.54 12.142-4.54h81.965c6.705 0 12.143 2.032 12.143 4.54v46.92z"/><path opacity=".3" fill="#5E6C79" d="M1130 389.175c0 6.43-5.373 11.643-12 11.643h-81c-6.627 0-12-5.213-12-11.643v-120.31c0-6.43 5.373-11.643 12-11.643h81c6.627 0 12 5.213 12 11.643v120.31z"/><path fill="#FAFAFA" d="M1129.25 387.352c0 6.548-5.438 11.855-12.143 11.855h-81.965c-6.705 0-12.143-5.308-12.143-11.855V264.854c0-6.547 5.437-11.854 12.142-11.854h81.965c6.705 0 12.143 5.307 12.143 11.854v122.498z"/><path fill="#FAFAFA" d="M1129.25 268.395c0 .75-5.438 1.358-12.143 1.358h-81.965c-6.705 0-12.143-.608-12.143-1.358V254.36c0-.75 5.437-1.36 12.142-1.36h81.965c6.705 0 12.143.61 12.143 1.36v14.035z"/><path opacity=".53" fill="#5E6C79" d="M1129.25 271.378c0 .896-5.438 1.622-12.143 1.622h-81.965c-6.705 0-12.143-.726-12.143-1.622V254.62c0-.895 5.437-1.62 12.142-1.62h81.965c6.705 0 12.143.725 12.143 1.62v16.758z"/><path fill="#FAFAFA" stroke="#F05B4F" stroke-width="4" stroke-miterlimit="10" d="M1040 339.472L1051 326h15.5l16.5-2.787 8-11.265 14.5-4.542 9.25-16.47"/><path opacity=".2" fill="#5E6C79" d="M1073 369.5c0 1.933-1.567 3.5-3.5 3.5h-31c-1.933 0-3.5-1.567-3.5-3.5s1.567-3.5 3.5-3.5h31c1.933 0 3.5 1.567 3.5 3.5zM1090 381c0 1.657-1.343 3-3 3h-46c-1.657 0-3-1.343-3-3s1.343-3 3-3h46c1.657 0 3 1.343 3 3z"/><path opacity=".3" fill="#5E6C79" d="M1249 315.175c0 6.43-5.373 11.643-12 11.643h-81c-6.627 0-12-5.213-12-11.643v-120.31c0-6.43 5.373-11.643 12-11.643h81c6.627 0 12 5.213 12 11.643v120.31z"/><path fill="#FAFAFA" d="M1248.25 314.352c0 6.548-5.438 11.855-12.143 11.855h-81.965c-6.705 0-12.143-5.308-12.143-11.855V191.854c0-6.547 5.437-11.854 12.142-11.854h81.965c6.705 0 12.143 5.307 12.143 11.854v122.498z"/><path fill="none" stroke="#FFF" stroke-width="2" stroke-miterlimit="10" d="M1033 213.5l16-6 10 3.5 16.75-3.5 9.25-5.5 13-5.5 5 3.5 15.476-7.55"/><path fill="#FCEE21" d="M1196.392 210.013c-.642 0-2.084.975-.783.975.64 0 2.082-.975.782-.975zM1197.596 246.83c-1.076 0-1.506 1.34-.19 1.34 1.074 0 1.504-1.34.19-1.34zM1163.375 233.95c-.725 0-2.057 1.1-.75 1.1.725 0 2.057-1.1.75-1.1z"/><path fill="#8C685D" d="M1198.45 250.78l-21.912-30.16c6.663-4.84 13.677-7.12 21.913-7.12v37.28z"/><path fill="#E6593B" d="M1198.45 250.78l-35.455 11.522c-5.09-15.666.217-32 13.543-41.682l21.913 30.16z"/><path fill="#FBAC25" d="M1198.45 250.78V213.5c20.59 0 37.282 16.69 37.282 37.28s-16.69 37.282-37.28 37.282c-16.473 0-30.367-10.096-35.457-25.76l35.456-11.52z"/><path fill="#F6C29D" d="M1253 678s-71.5-34.5-62-65.5 15.5-45.5 15.5-45.5l30-42.5L1266 493l26-23.5s-52.75-82.5-44.25-116.25 20-39 20-39l5.25-3.75 109.25 131-41.5 147-16.5 33 10 26.75L1253 678z"/><path fill="#DEA67B" d="M1254.333 332.667s17-23.668 18.667-22.167l1.667 1.5 107.583 129.5-20.583 74.834 8.333-81.667-115.667-102z"/><path fill="#F6C29D" d="M903.667 481.334l5 6.667 16.666 15 16.925 11.334 6.075 3.333 8 2.334S970 519.334 975 515.668 986 503 986 503l8.086-8.75 2.58-8.583S998.5 476 991.25 471s-22.532-18-22.532-18l-13.05-11.667s-3.084-5-11-3.666-18.668 5-18.668 5L915.667 449l-8 9.334-5.167 10.416 1.167 12.584zM930.2 412.167l1.567 3.083 10.54 8.042L964 441.312l11.345 8.012s4.044 3.006 15.686.006 18.64-8.665 18.64-8.665l9.033-10.7 4.297-8.89V408l-6.5-7.183-11.5-9.15L982.333 374s-10-6-15.666-4L961 372l-11.313 5.168-6.02 3.832-6.334 6.667-3.666 6L930.5 399l-.833 9 .534 4.167zM948.404 340.477l.632-13.905 6.65-11.452 10.323-8.834L978.06 302H994l16 8.5 8.5 7.998 5.833 8.17.67 10-2.003 8.676-3.667 7.656-3 3.667-3.933 5.5-6.733 2.5-7.387 4.04-6.03 1.293H983l-8.667-4.666-8.666-6.334-7.334-5-6-7"/><path fill="#F6C29D" d="M957.5 510l9.5-5 10.5-10.75 8.5-12.75-14.25-11-6.583-1.333-6.834.833-8.833 5.667s-6.667 5.5-7.167 11.333S944 499.333 944 499.333l6.667 5.834L957.5 510zM984.167 441.333s17.166-9.666 21.166-15.333 8-13.667 8-13.667l-10.5-8.333s-12.666-6.166-18.666-1.333-10.5 9.5-10.5 9.5-5.834 7.332-4.834 11.666 6.5 11.334 8 11.834 3 2 5.167 3.833l2.167 1.833zM990.167 362.167s14.832-10.333 20.666-17.667l5.834-7.333 1.833-5-10.667-8.333s-10.166-2.5-17.666 3.5-10 10.5-10 10.5-2.666 4.667-2 8.667l.666 4s-.167 1.5 2.5 4.834 8.834 6.833 8.834 6.833z"/><path fill="#DEA67B" d="M1277.666 315.333s-6.584 4.917-6.25 8.583 2.113 8.042 3.036 8.708.9.688.9.688l8.99 15.677s2.995 3.504 5.995 3.837 2.995.172 2.995.172H1303s5-1.5 5.167-1.668l-30.5-36zM1236.5 668.75s-54.5-26.625-15-96.625 60.69-97.312 60.69-97.312-53.69 54.718-57.19 60.218-3.5 5.485-3.5 5.485l-25 43.992S1192 600.5 1192 605v5s3.5 21 5.5 24 12 17.5 14.5 19.5l2.5 2 22 13.25z"/></g></g></svg>