<!DOCTYPE svg PUBLIC "-//W3C//DTD SVG 1.1//EN" "http://www.w3.org/Graphics/SVG/1.1/DTD/svg11.dtd" [
	<!ENTITY ns_flows "http://ns.adobe.com/Flows/1.0/">
]><svg xmlns="http://www.w3.org/2000/svg" width="546" height="610" viewBox="1011 89 546 610"><path opacity=".2" fill="#BDE1F0" d="M1139.965 403.893c0 17.61 12.825 34.573 30.22 34.573 10.702 0 6.524 2.47 25.035 1.74 18.598 1.42 22.596 1.794 35.7 1.794h37.793c12.16 0 25.292-3.125 42.202-3.125 36.733 0 66.52-30.09 66.52-65.278s-29.786-64.498-66.52-64.498c-26.494 0-48.905 11.483-59.606 32.944-7.166-1.98-13.295-1.528-20.39-1.528-21.975 0-40.484 14.557-46.207 34.57-4.035-1.883-8.525-3.002-13.275-3.002-17.397 0-31.473 14.2-31.473 31.81z"/><path fill="none" stroke="#DFDFDD" stroke-width="4" stroke-miterlimit="10" d="M1344.133 512.856c-5.574 23.135-11.105 46.28-16.633 69.427M1351.678 481.674c-1.428 5.873-2.852 11.748-4.27 17.623M1358.626 451.7c-1.308 5.69-2.58 11.39-3.813 17.1M1365.306 423.796c-1.228 4.946-2.437 9.898-3.62 14.855M1371.647 398.876c-1.05 4.035-2.09 8.073-3.12 12.114M1379.842 368.084c-1.633 6.004-3.256 12.01-4.848 18.025M1387.256 340.817c-1.31 4.868-2.638 9.73-3.962 14.594M1358.445 310.76c16.668-17.436 32.654-35.537 50.055-52.26-.172.352-.36.694-.566 1.027.186-.344.374-.687.566-1.027-9 22.23-11.98 46.555-17.916 69.687M1336.256 333.254c4.54-4.155 9.436-8.035 13.04-13.083M1214.977 358.392C1218 361 1223 363 1227 366c17 10 32 19 49 28 1 1 3-2 5-3 4-3 6-8 11-11 2-2 3-5 5-7 11-10 21-19 30.603-29.968M1192.938 344.118C1196 347 1200 349 1203.778 351.824M1200.586 297.12c-20.984 4.347-42.003 8.536-63.086 12.38 6.867-.487 13.57-2.166 20.23-3.822-6.79 1.007-13.494 2.514-20.23 3.822.893.556 4.668 3.088 5.67 2.16 2.068-1.913-4.935-2.177-5.67-2.16 14.986 8.992 29.918 18.083 44.613 27.546M1231.705 290.58c-6.31 1.34-12.623 2.677-18.938 4.002M1282.203 279.812c-12.8 2.713-25.594 5.456-38.39 8.188M1321.453 271.64c-9.03 1.835-18.056 3.708-27.075 5.603M1347.217 266.516c-4.523.877-9.045 1.767-13.564 2.667M1362.045 291.126C1375 279 1390 271 1405 261c2-2 3-4 4.146-5.5-1.214.163-2.406.494-3.518 1.012 1.25.087 2.5-.284 3.518-1.012-16.612 2.643-33.178 5.566-49.708 8.68M1337.418 311.235c4.78-3.9 9.564-7.792 14.364-11.667M1313.508 330.718c4.568-3.747 9.145-7.486 13.748-11.19"/><path fill="none" stroke="#DFDFDD" stroke-width="4" stroke-miterlimit="10" d="M1216.856 409.044C1219 407 1221 406 1224 404c11-9 21-17 33-26 5-3 8-9 13-14 12-9 24-16 34.215-25.66M1187.904 431.887c6.422-4.916 12.818-9.867 19.07-15M1168.614 446.462c2.9-2.177 5.806-4.345 8.72-6.5M1125.38 433.727c-11.57 24.285-23.19 48.546-34.88 72.773.596-.46 1.18-.935 1.752-1.425-.62.43-1.206.905-1.752 1.425 4.54-4.54 9.44-8.74 14.824-12.252 6.19-4.036 11.91-8.63 17.697-13.234 11.407-9.075 22.76-18.25 34.837-26.43M1141.502 399.794c-3.477 7.334-6.957 14.667-10.442 21.997M1156.953 367.13c-3.365 7.13-6.734 14.258-10.107 21.384M1193.08 290.335c-10.14 21.624-20.3 43.24-30.486 64.842M1207.436 260.48c-2.904 6.003-5.8 12.012-8.686 18.023M1257.902 250.71c-4.602-22.71-9.087-45.444-13.402-68.21-2.018 4.12.557 2.828 0 0-11.53 21.56-20.443 44.385-31.464 66.196M1302.756 464C1289 397 1279 329 1260.406 263.015M1308.326 492.737c-1.035-5.427-2.098-10.848-3.21-16.26M1312.61 518.394c-.708-4.405-1.357-8.82-1.952-13.24M1275.03 565.334C1292 571 1309 575 1326 582c1 0 2 0 1.805-.874-.734.28-2.797 2.364-.305 1.157C1320 566 1318 548 1314.767 530.88M1245.824 555.836c5.752 1.876 11.503 3.75 17.256 5.62M1209.346 543.88c8.177 2.692 16.355 5.378 24.537 8.055M1175.645 532.715c7.266 2.42 14.533 4.832 21.803 7.236"/><path fill="none" stroke="#DFDFDD" stroke-width="4" stroke-miterlimit="10" d="M1102.504 437.5C1098 460 1094 481 1091 503c13 7 28 10 42 16 10 4 20 5 30.215 9.563M1105.5 422.5l7-33M1116.5 376.54l12.62-39.54M1208.052 437.28c23.688-13.915 47.35-27.882 70.948-41.948M1177.52 455.18c5.802-3.396 11.6-6.793 17.397-10.19M1090.5 506.5c24.5-15.5 49.5-29.5 74.486-43.93"/><path fill="#DFDFDD" d="M1093.742 277.646c0 7.254-5.91 13.133-13.202 13.133-7.29 0-13.203-5.88-13.203-13.134 0-7.256 5.912-13.137 13.203-13.137 7.292 0 13.202 5.88 13.202 13.136z"/><ellipse fill="#DFDFDD" cx="1114.418" cy="251.468" rx="7.082" ry="6.312"/><ellipse fill="#DFDFDD" cx="1432.418" cy="325.468" rx="7.082" ry="6.312"/><ellipse fill="#DFDFDD" cx="1405.637" cy="620.668" rx="20.943" ry="20.464"/><path fill="#DFDFDD" d="M1541.742 633.646c0 7.254-5.91 13.133-13.202 13.133-7.29 0-13.203-5.88-13.203-13.134 0-7.256 5.912-13.137 13.203-13.137 7.292 0 13.202 5.88 13.202 13.136z"/><path fill="none" stroke="#DFDFDD" stroke-width="4" stroke-miterlimit="10" d="M1408 620.666l120.54 12.98-36 49"/><path fill="#DFDFDD" d="M1505.742 682.646c0 7.254-5.91 13.133-13.202 13.133-7.29 0-13.203-5.88-13.203-13.134 0-7.256 5.912-13.137 13.203-13.137 7.292 0 13.202 5.88 13.202 13.136z"/><ellipse fill="#DFDFDD" cx="1467.54" cy="217.646" rx="13.203" ry="13.134"/><path fill="#DFDFDD" d="M1473.742 156.646c0 7.254-5.91 13.133-13.202 13.133-7.29 0-13.203-5.88-13.203-13.134 0-7.256 5.912-13.137 13.203-13.137 7.292 0 13.202 5.88 13.202 13.136zM1547.742 204.646c0 7.254-5.91 13.133-13.202 13.133-7.29 0-13.203-5.88-13.203-13.134 0-7.256 5.912-13.137 13.203-13.137 7.292 0 13.202 5.88 13.202 13.136z"/><path fill="none" stroke="#DFDFDD" stroke-width="4" stroke-miterlimit="10" d="M1460.54 156.645l7 61 67-13z"/><path fill="none" stroke="#DFDFDD" stroke-width="4.985" stroke-miterlimit="10" d="M1233.512 173.645l-58.086-60.093"/><path fill="#DFDFDD" d="M1178.992 100.84c6.984 1.958 11.05 9.236 9.08 16.257-1.97 7.02-9.225 11.125-16.21 9.167-6.985-1.96-11.052-9.24-9.084-16.26 1.97-7.02 9.227-11.123 16.214-9.164zM1187.742 545.646c0 7.254-5.91 13.133-13.202 13.133-7.29 0-13.203-5.88-13.203-13.134 0-7.256 5.912-13.137 13.203-13.137 7.292 0 13.202 5.88 13.202 13.136z"/><ellipse fill="#DFDFDD" cx="1208.418" cy="519.468" rx="7.082" ry="6.312"/><ellipse fill="#DFDFDD" cx="1428.588" cy="451.271" rx="7.251" ry="7.258"/><path fill="#DFDFDD" d="M1411.742 429.646c0 7.254-5.91 13.133-13.202 13.133-7.29 0-13.203-5.88-13.203-13.134 0-7.256 5.912-13.137 13.203-13.137 7.292 0 13.202 5.88 13.202 13.136z"/><path fill="none" stroke="#DFDFDD" stroke-width="4" stroke-miterlimit="10" d="M1399.167 429.645l30 21.625"/><ellipse fill="#DFDFDD" cx="1244.901" cy="182.253" rx="54.706" ry="49.338"/><path fill="#C1C1C1" stroke="#C1C1C1" stroke-width="1.376" stroke-miterlimit="10" d="M1193.636 168.676h103.887v40.937h-103.887v-40.937M1295.804 169.708h1.72"/><path fill="#A5A39D" stroke="#A5A39D" stroke-width=".344" stroke-miterlimit="10" d="M1247.473 191.553v-1.377h4.127v1.377zM1190.713 211.16v-2.75H1298.038v2.75"/><path opacity=".59" fill="#A5A39D" stroke="#A5A39D" stroke-width=".344" stroke-miterlimit="10" d="M1193.12 163.688h104.92v6.536h-104.92"/><path fill="#82BEDF" stroke="#82BEDF" stroke-width="1.101" stroke-miterlimit="10" d="M1189.594 164.376h111.714v4.3h-111.714"/><path fill="#1AACE3" stroke="#1AACE3" stroke-width="1.376" stroke-miterlimit="10" d="M1198.796 187.596h-5.16v15.48h22.704v-15.48h-17.544M1297.523 203.42h-47.815v-15.48h47.815"/><path fill="none" stroke="#656259" stroke-width=".688" stroke-miterlimit="10" d="M1231.476 207.893v-20.297"/><path fill="#A5A39D" stroke="#A5A39D" stroke-width="1.376" stroke-miterlimit="10" d="M1218.748 185.876h24.768v21.672h-24.768z"/><path fill="#1AACE3" stroke="#1AACE3" stroke-width="1.376" stroke-miterlimit="10" d="M1220.123 187.253h9.977v19.608h-9.977zM1232.853 187.253h9.286v19.608h-9.287z"/><path fill="none" stroke="#80C4EC" stroke-width="1.93" stroke-miterlimit="10" d="M1225.416 208.41l5.027-22.154"/><path fill="#DFDFDD" d="M1188.476 162.484h113.176v1.377h-113.176"/><path fill="#82BEDF" stroke="#82BEDF" stroke-width=".858" stroke-miterlimit="10" d="M1185.466 159.962h115.727v2.522h-115.727"/><path opacity=".34" fill="#6490A3" d="M1282.216 159.79h19.393v9.403h-19.394z"/><path opacity=".4" fill="#7C7C7B" stroke="#7C7C7B" stroke-width=".344" stroke-miterlimit="10" d="M1282.216 211.16v-2.75h15.823v2.75"/><path fill="none" stroke="#80C4EC" stroke-width="5.794" stroke-miterlimit="10" d="M1197.477 205.6l7.51-20.067"/><path fill="none" stroke="#80C4EC" stroke-width="3.44" stroke-miterlimit="10" d="M1203.67 205.944l7.51-20.068"/><path fill="#C1C1C1" d="M1193.293 203.764h15.48v2.752h-15.48zM1199.828 182.093h15.136v4.816h-15.136z"/><path fill="none" stroke="#80C4EC" stroke-width="5.794" stroke-miterlimit="10" d="M1260.43 205.944l7.51-20.068"/><path fill="none" stroke="#80C4EC" stroke-width="3.44" stroke-miterlimit="10" d="M1266.62 206.287l7.513-20.066"/><path fill="#C1C1C1" d="M1261.748 182.437h15.136v4.816h-15.136zM1256.588 204.108h15.48v2.752h-15.48z"/><path fill="none" stroke="#80C4EC" stroke-width="5.504" stroke-miterlimit="10" d="M1220.927 208.03l5.028-22.154"/><path fill="#A5A39D" d="M1220.813 185.188h9.976v1.376h-9.977zM1218.06 199.293h1.376v9.976h-1.377z"/><path fill="#A5A39D" d="M1230.788 185.876h1.376v9.977h-1.376z"/><path fill="none" stroke="#80C4EC" stroke-width="1.843" stroke-miterlimit="10" d="M1238.488 207.72l4.802-21.156"/><path fill="#A5A39D" stroke="#A5A39D" stroke-width=".344" stroke-miterlimit="10" d="M1197.248 206.688v-1.375h4.128v1.375z"/><path fill="#A5A39D" d="M1230.788 199.636h1.376v9.977h-1.376z"/><path fill="#A5A39D" d="M1218.404 207.548h24.08v1.376h-24.08zM1218.748 185.188h24.768v1.376h-24.768z"/><path fill="#A5A39D" d="M1242.828 186.22h1.375v9.977h-1.375z"/><path fill="#A5A39D" stroke="#A5A39D" stroke-width=".344" stroke-miterlimit="10" d="M1191.744 174.353v-1.376H1195.528v1.376zM1191.744 176.417v-1.376h2.407v1.377zM1244.72 178.48v-1.376h5.504v1.377zM1248.16 180.89v-1.377h4.128v1.376z"/><path opacity=".22" fill="#A5A39D" stroke="#A5A39D" stroke-width=".344" stroke-miterlimit="10" d="M1282.216 168.85h15.48"/><path fill="#DFDFDD" d="M1155.73 499.254c0 31.687-28.48 57.37-63.61 57.37-35.133 0-63.612-25.684-63.612-57.37 0-31.688 28.48-57.378 63.61-57.378 35.132 0 63.612 25.69 63.612 57.378z"/><path fill="#C1C1C1" stroke="#C1C1C1" stroke-width="1.6" stroke-miterlimit="10" d="M1032.51 483.467h120.8v47.6h-120.8v-47.6M1151.31 484.667h2"/><path fill="#A5A39D" stroke="#A5A39D" stroke-width=".4" stroke-miterlimit="10" d="M1095.11 510.067v-1.6h4.798v1.6zM1029.11 532.867v-3.2h124.798v3.2"/><path opacity=".59" fill="#A5A39D" stroke="#A5A39D" stroke-width=".4" stroke-miterlimit="10" d="M1031.908 477.667h122v7.6h-122"/><path fill="#82BEDF" stroke="#82BEDF" stroke-width="1.28" stroke-miterlimit="10" d="M1027.81 478.467h129.9v5h-129.9"/><path fill="#1AACE3" stroke="#1AACE3" stroke-width="1.6" stroke-miterlimit="10" d="M1038.51 505.467h-6v18h26.398v-18h-20.4M1153.31 523.867h-55.6v-18h55.6"/><path fill="none" stroke="#656259" stroke-width=".8" stroke-miterlimit="10" d="M1076.51 529.067v-23.6"/><path fill="#A5A39D" stroke="#A5A39D" stroke-width="1.6" stroke-miterlimit="10" d="M1061.71 503.467h28.8v25.2h-28.8z"/><path fill="#1AACE3" stroke="#1AACE3" stroke-width="1.6" stroke-miterlimit="10" d="M1063.31 505.067h11.6v22.8h-11.6zM1078.11 505.067h10.798v22.8h-10.8z"/><path fill="none" stroke="#80C4EC" stroke-width="2.244" stroke-miterlimit="10" d="M1069.463 529.667l5.846-25.76"/><path fill="#DFDFDD" d="M1026.51 476.267h131.6v1.6h-131.6"/><path fill="#82BEDF" stroke="#82BEDF" stroke-width=".998" stroke-miterlimit="10" d="M1023.01 473.334h134.566v2.933H1023.01"/><path opacity=".34" fill="#6490A3" d="M1135.51 473.134h22.55v10.934h-22.55z"/><path opacity=".4" fill="#7C7C7B" stroke="#7C7C7B" stroke-width=".4" stroke-miterlimit="10" d="M1135.51 532.867v-3.2h18.398v3.2"/><path fill="none" stroke="#80C4EC" stroke-width="6.737" stroke-miterlimit="10" d="M1036.976 526.4l8.733-23.333"/><path fill="none" stroke="#80C4EC" stroke-width="4" stroke-miterlimit="10" d="M1044.176 526.8l8.732-23.333"/><path fill="#C1C1C1" d="M1032.11 524.267h18v3.2h-18zM1039.71 499.067h17.6v5.6h-17.6z"/><path fill="none" stroke="#80C4EC" stroke-width="6.737" stroke-miterlimit="10" d="M1110.176 526.8l8.732-23.333"/><path fill="none" stroke="#80C4EC" stroke-width="4" stroke-miterlimit="10" d="M1117.375 527.2l8.734-23.333"/><path fill="#C1C1C1" d="M1111.71 499.467h17.6v5.6h-17.6zM1105.71 524.667h18v3.2h-18z"/><path fill="none" stroke="#80C4EC" stroke-width="6.4" stroke-miterlimit="10" d="M1064.242 529.226l5.847-25.76"/><path fill="#A5A39D" d="M1064.11 502.667h11.6v1.6h-11.6zM1060.908 519.067h1.6v11.6h-1.6zM1075.71 503.467h1.6v11.6h-1.6z"/><path fill="none" stroke="#80C4EC" stroke-width="2.143" stroke-miterlimit="10" d="M1084.662 528.867l5.584-24.6"/><path fill="#A5A39D" stroke="#A5A39D" stroke-width=".4" stroke-miterlimit="10" d="M1036.71 527.667v-1.6h4.8v1.6z"/><path fill="#A5A39D" d="M1075.71 519.467h1.6v11.6h-1.6z"/><path fill="#A5A39D" d="M1061.31 528.667h28v1.6h-28zM1061.71 502.667h28.8v1.6h-28.8z"/><path fill="#A5A39D" d="M1089.71 503.867h1.6v11.6h-1.6z"/><path fill="#A5A39D" stroke="#A5A39D" stroke-width=".4" stroke-miterlimit="10" d="M1030.31 490.067v-1.6h4.399v1.6zM1030.31 492.467v-1.6h2.8v1.6zM1091.908 494.867v-1.6h6.4v1.6zM1095.908 497.667v-1.6h4.803v1.6z"/><path opacity=".22" fill="#A5A39D" stroke="#A5A39D" stroke-width=".4" stroke-miterlimit="10" d="M1135.51 483.667h18"/><ellipse fill="#DFDFDD" cx="1322.683" cy="574.253" rx="45.8" ry="41.307"/><path fill="#C1C1C1" stroke="#C1C1C1" stroke-width="1.152" stroke-miterlimit="10" d="M1279.763 562.886h86.975v34.272h-86.975v-34.272M1365.3 563.75h1.438"/><path fill="#A5A39D" stroke="#A5A39D" stroke-width=".288" stroke-miterlimit="10" d="M1324.836 582.038v-1.152h3.455v1.152zM1277.315 598.454v-2.304h89.855v2.304"/><path opacity=".59" fill="#A5A39D" stroke="#A5A39D" stroke-width=".288" stroke-miterlimit="10" d="M1279.33 558.71h87.84v5.472h-87.84"/><path fill="#82BEDF" stroke="#82BEDF" stroke-width=".921" stroke-miterlimit="10" d="M1276.38 559.286h93.527v3.6h-93.528"/><path fill="#1AACE3" stroke="#1AACE3" stroke-width="1.152" stroke-miterlimit="10" d="M1284.083 578.727h-4.32v12.96h19.008v-12.96h-14.687M1366.738 591.975h-40.03v-12.96h40.03"/><path fill="none" stroke="#656259" stroke-width=".576" stroke-miterlimit="10" d="M1311.443 595.72v-16.993"/><path fill="#A5A39D" stroke="#A5A39D" stroke-width="1.152" stroke-miterlimit="10" d="M1300.787 577.286h20.736v18.145h-20.736z"/><path fill="#1AACE3" stroke="#1AACE3" stroke-width="1.152" stroke-miterlimit="10" d="M1301.94 578.438h8.35v16.416h-8.35zM1312.596 578.438h7.775v16.416h-7.774z"/><path fill="none" stroke="#80C4EC" stroke-width="1.616" stroke-miterlimit="10" d="M1306.37 596.15l4.208-18.546"/><path fill="#DFDFDD" d="M1275.443 557.702h94.752v1.152h-94.752"/><path fill="#82BEDF" stroke="#82BEDF" stroke-width=".718" stroke-miterlimit="10" d="M1272.923 555.59h96.89v2.112h-96.89"/><path opacity=".34" fill="#6490A3" d="M1353.923 555.446h16.235v7.872h-16.235z"/><path opacity=".4" fill="#7C7C7B" stroke="#7C7C7B" stroke-width=".288" stroke-miterlimit="10" d="M1353.923 598.454v-2.304h13.247v2.304"/><path fill="none" stroke="#80C4EC" stroke-width="4.851" stroke-miterlimit="10" d="M1282.98 593.798l6.288-16.8"/><path fill="none" stroke="#80C4EC" stroke-width="2.88" stroke-miterlimit="10" d="M1288.163 594.087l6.288-16.8"/><path fill="#C1C1C1" d="M1279.475 592.262h12.96v2.305h-12.96zM1284.947 574.118h12.672v4.032h-12.673z"/><path fill="none" stroke="#80C4EC" stroke-width="4.851" stroke-miterlimit="10" d="M1335.684 594.087l6.287-16.8"/><path fill="none" stroke="#80C4EC" stroke-width="2.88" stroke-miterlimit="10" d="M1340.867 594.374l6.288-16.8"/><path fill="#C1C1C1" d="M1336.787 574.406h12.672v4.032h-12.673zM1332.467 592.55h12.96v2.305h-12.96z"/><path fill="none" stroke="#80C4EC" stroke-width="4.608" stroke-miterlimit="10" d="M1302.61 595.832l4.21-18.546"/><path fill="#A5A39D" d="M1302.516 576.71h8.352v1.152h-8.352zM1300.21 588.52h1.153v8.35h-1.152z"/><path fill="#A5A39D" d="M1310.867 577.286h1.15v8.353h-1.15z"/><path fill="none" stroke="#80C4EC" stroke-width="1.543" stroke-miterlimit="10" d="M1317.313 595.574l4.02-17.712"/><path fill="#A5A39D" stroke="#A5A39D" stroke-width=".288" stroke-miterlimit="10" d="M1282.787 594.71v-1.15h3.455v1.15z"/><path fill="#A5A39D" d="M1310.867 588.806h1.15v8.353h-1.15z"/><path fill="#A5A39D" d="M1300.498 595.43h20.16v1.152h-20.16zM1300.787 576.71h20.736v1.152h-20.736z"/><path fill="#A5A39D" d="M1320.947 577.574h1.15v8.352h-1.15z"/><path fill="#A5A39D" stroke="#A5A39D" stroke-width=".288" stroke-miterlimit="10" d="M1278.18 567.64v-1.154h3.168v1.153zM1278.18 569.366v-1.15H1280.194v1.15zM1322.53 571.095v-1.153h4.609v1.153zM1325.41 573.11v-1.15h3.457v1.15z"/><path opacity=".22" fill="#A5A39D" stroke="#A5A39D" stroke-width=".288" stroke-miterlimit="10" d="M1353.923 563.03h12.96"/><ellipse fill="#DFDFDD" cx="1264.885" cy="394.253" rx="54.07" ry="48.765"/><path fill="#C1C1C1" stroke="#C1C1C1" stroke-width="1.36" stroke-miterlimit="10" d="M1214.217 380.834h102.68v40.46h-102.68v-40.46M1315.196 381.854h1.7"/><path fill="#A5A39D" stroke="#A5A39D" stroke-width=".34" stroke-miterlimit="10" d="M1267.427 403.444v-1.36h4.079v1.36zM1211.326 422.824v-2.72H1317.406v2.72"/><path opacity=".59" fill="#A5A39D" stroke="#A5A39D" stroke-width=".34" stroke-miterlimit="10" d="M1213.706 375.904h103.7v6.46h-103.7"/><path fill="#82BEDF" stroke="#82BEDF" stroke-width="1.088" stroke-miterlimit="10" d="M1210.22 376.584h110.417v4.25H1210.22"/><path fill="#1AACE3" stroke="#1AACE3" stroke-width="1.36" stroke-miterlimit="10" d="M1219.316 399.534h-5.1v15.3h22.44v-15.3h-17.34M1316.896 415.175h-47.26v-15.3h47.26"/><path fill="none" stroke="#656259" stroke-width=".68" stroke-miterlimit="10" d="M1251.616 419.595v-20.06"/><path fill="#A5A39D" stroke="#A5A39D" stroke-width="1.36" stroke-miterlimit="10" d="M1239.037 397.834h24.48v21.42h-24.48z"/><path fill="#1AACE3" stroke="#1AACE3" stroke-width="1.36" stroke-miterlimit="10" d="M1240.396 399.194h9.86v19.38h-9.86zM1252.977 399.194h9.18v19.38h-9.18z"/><path fill="none" stroke="#80C4EC" stroke-width="1.908" stroke-miterlimit="10" d="M1245.627 420.104l4.97-21.894"/><path fill="#DFDFDD" d="M1209.116 374.714h111.86v1.36h-111.86"/><path fill="#82BEDF" stroke="#82BEDF" stroke-width=".848" stroke-miterlimit="10" d="M1206.14 372.222h114.383v2.492H1206.14"/><path opacity=".34" fill="#6490A3" d="M1301.766 372.05h19.168v9.295h-19.168z"/><path opacity=".4" fill="#7C7C7B" stroke="#7C7C7B" stroke-width=".34" stroke-miterlimit="10" d="M1301.766 422.824v-2.72h15.64v2.72"/><path fill="none" stroke="#80C4EC" stroke-width="5.727" stroke-miterlimit="10" d="M1218.014 417.328l7.423-19.833"/><path fill="none" stroke="#80C4EC" stroke-width="3.4" stroke-miterlimit="10" d="M1224.133 417.668l7.423-19.834"/><path fill="#C1C1C1" d="M1213.877 415.514h15.3v2.72h-15.3zM1220.336 394.095h14.96v4.76h-14.96z"/><path fill="none" stroke="#80C4EC" stroke-width="5.727" stroke-miterlimit="10" d="M1280.233 417.668l7.423-19.834"/><path fill="none" stroke="#80C4EC" stroke-width="3.4" stroke-miterlimit="10" d="M1286.353 418.008l7.424-19.833"/><path fill="#C1C1C1" d="M1281.537 394.435h14.96v4.76h-14.96zM1276.437 415.854h15.3v2.72h-15.3z"/><path fill="none" stroke="#80C4EC" stroke-width="5.44" stroke-miterlimit="10" d="M1241.19 419.73l4.97-21.896"/><path fill="#A5A39D" d="M1241.076 397.154h9.86v1.36h-9.86zM1238.355 411.095h1.36v9.86h-1.36zM1250.937 397.834h1.36v9.86h-1.36z"/><path fill="none" stroke="#80C4EC" stroke-width="1.822" stroke-miterlimit="10" d="M1258.547 419.425l4.746-20.91"/><path fill="#A5A39D" stroke="#A5A39D" stroke-width=".34" stroke-miterlimit="10" d="M1217.787 418.404v-1.36h4.079v1.36z"/><path fill="#A5A39D" d="M1250.937 411.435h1.36v9.86h-1.36z"/><path fill="#A5A39D" d="M1238.696 419.255h23.8v1.36h-23.8zM1239.037 397.154h24.48v1.36h-24.48z"/><path fill="#A5A39D" d="M1262.836 398.175h1.36v9.86h-1.36z"/><path fill="#A5A39D" stroke="#A5A39D" stroke-width=".34" stroke-miterlimit="10" d="M1212.346 386.444v-1.36h3.74v1.36zM1212.346 388.484v-1.36h2.382v1.36zM1264.706 390.524v-1.36h5.44v1.36zM1268.105 392.904v-1.36h4.083v1.36z"/><path opacity=".22" fill="#A5A39D" stroke="#A5A39D" stroke-width=".34" stroke-miterlimit="10" d="M1301.766 381.005h15.3"/><ellipse fill="#DFDFDD" cx="1136.557" cy="311.252" rx="40.711" ry="36.717"/><path fill="#C1C1C1" stroke="#C1C1C1" stroke-width="1.024" stroke-miterlimit="10" d="M1098.406 301.15h77.313v30.463h-77.314V301.15M1174.438 301.917h1.28"/><path fill="#A5A39D" stroke="#A5A39D" stroke-width=".256" stroke-miterlimit="10" d="M1138.47 318.173v-1.024H1141.545v1.023zM1096.23 332.765v-2.048h79.873v2.048"/><path opacity=".59" fill="#A5A39D" stroke="#A5A39D" stroke-width=".256" stroke-miterlimit="10" d="M1098.022 297.437h78.08v4.864h-78.08"/><path fill="#82BEDF" stroke="#82BEDF" stroke-width=".819" stroke-miterlimit="10" d="M1095.398 297.95h83.137v3.2h-83.137"/><path fill="#1AACE3" stroke="#1AACE3" stroke-width="1.024" stroke-miterlimit="10" d="M1102.246 315.23h-3.84v11.52h16.897v-11.52h-13.057M1175.72 327.005h-35.585v-11.52h35.584"/><path fill="none" stroke="#656259" stroke-width=".512" stroke-miterlimit="10" d="M1126.566 330.333V315.23"/><path fill="#A5A39D" stroke="#A5A39D" stroke-width="1.024" stroke-miterlimit="10" d="M1117.095 313.95h18.433v16.127h-18.433z"/><path fill="#1AACE3" stroke="#1AACE3" stroke-width="1.024" stroke-miterlimit="10" d="M1118.12 314.973h7.423v14.592h-7.424zM1127.592 314.973h6.91v14.592h-6.91z"/><path fill="none" stroke="#80C4EC" stroke-width="1.436" stroke-miterlimit="10" d="M1122.058 330.717l3.74-16.486"/><path fill="#DFDFDD" d="M1094.566 296.54h84.225v1.025h-84.224"/><path fill="#82BEDF" stroke="#82BEDF" stroke-width=".638" stroke-miterlimit="10" d="M1092.326 294.664h86.123v1.877h-86.124"/><path opacity=".34" fill="#6490A3" d="M1164.326 294.536h14.433v6.998h-14.434z"/><path opacity=".4" fill="#7C7C7B" stroke="#7C7C7B" stroke-width=".256" stroke-miterlimit="10" d="M1164.326 332.765v-2.048h11.777v2.048"/><path fill="none" stroke="#80C4EC" stroke-width="4.312" stroke-miterlimit="10" d="M1101.266 328.626l5.59-14.933"/><path fill="none" stroke="#80C4EC" stroke-width="2.56" stroke-miterlimit="10" d="M1105.873 328.882l5.59-14.933"/><path fill="#C1C1C1" d="M1098.15 327.26h11.522v2.05h-11.52zM1103.016 311.133h11.264v3.583h-11.264z"/><path fill="none" stroke="#80C4EC" stroke-width="4.312" stroke-miterlimit="10" d="M1148.113 328.882l5.59-14.933"/><path fill="none" stroke="#80C4EC" stroke-width="2.56" stroke-miterlimit="10" d="M1152.72 329.138l5.59-14.933"/><path fill="#C1C1C1" d="M1149.095 311.39h11.265v3.583h-11.265zM1145.255 327.517h11.52v2.048h-11.52z"/><path fill="none" stroke="#80C4EC" stroke-width="4.096" stroke-miterlimit="10" d="M1118.717 330.435l3.74-16.486"/><path fill="#A5A39D" d="M1118.63 313.437h7.425v1.023h-7.424zM1116.582 323.933h1.025v7.424h-1.025zM1126.055 313.95h1.023v7.423h-1.023z"/><path fill="none" stroke="#80C4EC" stroke-width="1.372" stroke-miterlimit="10" d="M1131.785 330.205l3.574-15.745"/><path fill="#A5A39D" stroke="#A5A39D" stroke-width=".256" stroke-miterlimit="10" d="M1101.095 329.437v-1.024h3.072v1.024z"/><path fill="#A5A39D" d="M1126.055 324.19h1.023v7.423h-1.023z"/><path fill="#A5A39D" d="M1116.84 330.077h17.92v1.023h-17.92zM1117.095 313.437h18.433v1.023h-18.433z"/><path fill="#A5A39D" d="M1135.016 314.205h1.023v7.424h-1.024z"/><path fill="#A5A39D" stroke="#A5A39D" stroke-width=".256" stroke-miterlimit="10" d="M1096.998 305.373v-1.024h2.816v1.023zM1096.998 306.91v-1.025h1.793v1.024zM1136.422 308.445v-1.024h4.097v1.025zM1138.982 310.237v-1.024H1142.056v1.024z"/><path opacity=".22" fill="#A5A39D" stroke="#A5A39D" stroke-width=".256" stroke-miterlimit="10" d="M1164.326 301.277h11.52"/><ellipse fill="#DFDFDD" cx="1408.557" cy="255.252" rx="40.711" ry="36.716"/><path fill="#C1C1C1" stroke="#C1C1C1" stroke-width="1.024" stroke-miterlimit="10" d="M1370.406 245.15h77.313v30.463h-77.314V245.15M1446.438 245.917h1.28"/><path fill="#A5A39D" stroke="#A5A39D" stroke-width=".256" stroke-miterlimit="10" d="M1410.47 262.173v-1.024H1413.545v1.023zM1368.23 276.765v-2.048h79.873v2.048"/><path opacity=".59" fill="#A5A39D" stroke="#A5A39D" stroke-width=".256" stroke-miterlimit="10" d="M1370.022 241.437h78.08v4.864h-78.08"/><path fill="#82BEDF" stroke="#82BEDF" stroke-width=".819" stroke-miterlimit="10" d="M1367.398 241.95h83.137v3.2h-83.137"/><path fill="#1AACE3" stroke="#1AACE3" stroke-width="1.024" stroke-miterlimit="10" d="M1374.246 259.23h-3.84v11.52h16.897v-11.52h-13.057M1447.72 271.005h-35.585v-11.52h35.584"/><path fill="none" stroke="#656259" stroke-width=".512" stroke-miterlimit="10" d="M1398.566 274.333V259.23"/><path fill="#A5A39D" stroke="#A5A39D" stroke-width="1.024" stroke-miterlimit="10" d="M1389.095 257.95h18.433v16.127h-18.433z"/><path fill="#1AACE3" stroke="#1AACE3" stroke-width="1.024" stroke-miterlimit="10" d="M1390.12 258.973h7.423v14.592h-7.424zM1399.592 258.973h6.91v14.592h-6.91z"/><path fill="none" stroke="#80C4EC" stroke-width="1.436" stroke-miterlimit="10" d="M1394.058 274.717l3.74-16.486"/><path fill="#DFDFDD" d="M1366.566 240.54h84.225v1.025h-84.224"/><path fill="#82BEDF" stroke="#82BEDF" stroke-width=".638" stroke-miterlimit="10" d="M1364.326 238.664h86.123v1.877h-86.124"/><path opacity=".34" fill="#6490A3" d="M1436.326 238.536h14.433v6.998h-14.434z"/><path opacity=".4" fill="#7C7C7B" stroke="#7C7C7B" stroke-width=".256" stroke-miterlimit="10" d="M1436.326 276.765v-2.048h11.777v2.048"/><path fill="none" stroke="#80C4EC" stroke-width="4.312" stroke-miterlimit="10" d="M1373.266 272.626l5.59-14.933"/><path fill="none" stroke="#80C4EC" stroke-width="2.56" stroke-miterlimit="10" d="M1377.873 272.882l5.59-14.933"/><path fill="#C1C1C1" d="M1370.15 271.26h11.522v2.05h-11.52zM1375.016 255.133h11.264v3.583h-11.264z"/><path fill="none" stroke="#80C4EC" stroke-width="4.312" stroke-miterlimit="10" d="M1420.113 272.882l5.59-14.933"/><path fill="none" stroke="#80C4EC" stroke-width="2.56" stroke-miterlimit="10" d="M1424.72 273.138l5.59-14.933"/><path fill="#C1C1C1" d="M1421.095 255.39h11.265v3.583h-11.265zM1417.255 271.517h11.52v2.048h-11.52z"/><path fill="none" stroke="#80C4EC" stroke-width="4.096" stroke-miterlimit="10" d="M1390.717 274.435l3.74-16.486"/><path fill="#A5A39D" d="M1390.63 257.437h7.425v1.023h-7.424zM1388.582 267.933h1.025v7.424h-1.025zM1398.055 257.95h1.023v7.423h-1.023z"/><path fill="none" stroke="#80C4EC" stroke-width="1.372" stroke-miterlimit="10" d="M1403.785 274.205l3.574-15.745"/><path fill="#A5A39D" stroke="#A5A39D" stroke-width=".256" stroke-miterlimit="10" d="M1373.095 273.437v-1.024h3.072v1.024z"/><path fill="#A5A39D" d="M1398.055 268.19h1.023v7.423h-1.023z"/><path fill="#A5A39D" d="M1388.84 274.077h17.92v1.023h-17.92zM1389.095 257.437h18.433v1.023h-18.433z"/><path fill="#A5A39D" d="M1407.016 258.205h1.023v7.424h-1.024z"/><path fill="#A5A39D" stroke="#A5A39D" stroke-width=".256" stroke-miterlimit="10" d="M1368.998 249.373v-1.024h2.816v1.023zM1368.998 250.91v-1.025h1.793v1.024zM1408.422 252.445v-1.024h4.097v1.025zM1410.982 254.237v-1.024H1414.056v1.024z"/><path opacity=".22" fill="#A5A39D" stroke="#A5A39D" stroke-width=".256" stroke-miterlimit="10" d="M1436.326 245.277h11.52"/><path fill="none" d="M1011 89h546v610h-546z"/></svg>