<svg xmlns="http://www.w3.org/2000/svg" width="546" height="355.334" viewBox="0 0 546 355.334"><radialGradient id="a" cx="186.475" cy="227.191" r="202.035" gradientTransform="matrix(-1.28 0 0 -1.024 477.688 438.988)" gradientUnits="userSpaceOnUse"><stop offset="0" stop-color="#7FD0E8"/><stop offset=".181" stop-color="#83D1E9"/><stop offset=".342" stop-color="#8DD5EB"/><stop offset=".495" stop-color="#A0DCEE"/><stop offset=".644" stop-color="#B9E5F2"/><stop offset=".789" stop-color="#DAF1F8"/><stop offset=".921" stop-color="#FFF"/><stop offset="1" stop-color="#FFF"/></radialGradient><path fill="none" stroke="#999B9E" stroke-width="4" stroke-miterlimit="10" d="M10 337.334h486"/><path fill="none" stroke="#605C52" stroke-width="3" stroke-miterlimit="10" d="M58.5 200.334V205.333M83 233.834h11M88.563 307.584l-.157-98.375-8.28-9.376H55"/><path fill="#FFF" stroke="#FFF" stroke-width="3" stroke-miterlimit="10" d="M97.167 196.2c0 7.073 4.842 13.888 11.41 13.888 4.04 0 2.464.654 9.454.36 7.023.57 8.533.386 13.48.386h14.27c4.592 0 9.55-.92 15.936-.92 13.87 0 25.118-11.917 25.118-26.053 0-14.134-11.247-25.823-25.118-25.823-10.003 0-18.466 4.655-22.506 13.276-2.706-.795-5.02-.593-7.7-.593-8.296 0-15.285 5.86-17.446 13.898-1.523-.756-3.22-1.202-5.013-1.202-6.568 0-11.883 5.71-11.883 12.784zM356.217 123.334c0 6.08 4.12 11.938 9.708 11.938 3.438 0 2.096.523 8.042.27 5.974.492 7.258.293 11.468.293h12.14c3.907 0 8.126-.75 13.558-.75 11.8 0 21.368-10.225 21.368-22.375s-9.567-22.188-21.367-22.188c-8.51 0-15.71 4.006-19.147 11.417-2.302-.685-4.27-.508-6.55-.508-7.06 0-13.005 5.037-14.843 11.947-1.296-.65-2.74-1.033-4.265-1.033-5.59 0-10.11 4.907-10.11 10.987z"/><path fill="none" stroke="#605C52" stroke-width="2" stroke-miterlimit="10" d="M86 236.334h5"/><ellipse fill="#FFF" stroke="#FFF" stroke-width="3" stroke-miterlimit="10" cx="58.563" cy="212.021" rx="6.438" ry="6.688"/><path fill="#C1C1C1" stroke="#C1C1C1" stroke-width="4" stroke-miterlimit="10" d="M173 212.334h302v119H173z"/><path fill="#C1C1C1" stroke="#C1C1C1" stroke-width="4" stroke-miterlimit="10" d="M470 215.334h5v119h-5z"/><path fill="#A5A39D" stroke="#A5A39D" stroke-miterlimit="10" d="M329.5 278.834v-4h12v4zM164.5 335.834v-8h312v8z"/><path opacity=".59" fill="#A5A39D" stroke="#A5A39D" stroke-miterlimit="10" d="M171.5 197.834h305v19h-305z"/><path fill="#82BEDF" stroke="#82BEDF" stroke-width="3.199" stroke-miterlimit="10" d="M161.25 199.834H486v12.5H161.25z"/><path fill="#1AACE3" stroke="#1AACE3" stroke-width="4" stroke-miterlimit="10" d="M188 267.334h-15v45h66v-45h-51M336 268.334h139v45H336z"/><path fill="none" stroke="#656259" stroke-width="2" stroke-miterlimit="10" d="M283 326.334v-59"/><path fill="#656259" stroke="#656259" stroke-width="3" stroke-miterlimit="10" d="M79.5 333.834v-5.5l2.75-1.5H96l1.5 1.375v5.624z"/><path fill="#A5A39D" stroke="#A5A39D" stroke-width="4" stroke-miterlimit="10" d="M246 262.334h72v63h-72z"/><path fill="#1AACE3" stroke="#1AACE3" stroke-width="4" stroke-miterlimit="10" d="M250 266.334h29v57h-29zM287 266.334h27v57h-27z"/><path fill="#80C4EC" stroke="#80C4EC" stroke-width="5.611" stroke-miterlimit="10" d="M265.384 327.834L280 263.438"/><path fill="#656259" stroke="#656259" stroke-width="4" stroke-miterlimit="10" d="M85 326.334v-16.217l2.5-1.783H92v18z"/><path fill="#FFF" stroke="#FFF" stroke-width="2" stroke-miterlimit="10" d="M195.217 69.546c0 5.008 3.4 9.832 8.01 9.832 2.837 0 1.73.677 6.637.47 4.93.404 5.99.486 9.463.486h10.02c3.223 0 6.704-.864 11.186-.864 9.738 0 17.633-8.545 17.633-18.55 0-10.008-7.896-18.337-17.633-18.337-7.023 0-12.964 3.27-15.8 9.372-1.9-.563-3.525-.433-5.406-.433-5.825 0-10.732 4.14-12.25 9.832-1.07-.535-2.26-.854-3.518-.854-4.612 0-8.343 4.04-8.343 9.046z"/><path fill="#DFDFDD" d="M158 194.334h329v4H158z"/><path fill="#82BEDF" stroke="#82BEDF" stroke-width="2.494" stroke-miterlimit="10" d="M149.25 187h336.417v7.334H149.25z"/><path opacity=".34" fill="#6490A3" d="M430.5 186.5h56.375v27.333H430.5z"/><path opacity=".4" fill="#7C7C7B" stroke="#7C7C7B" stroke-miterlimit="10" d="M430.5 327.834h46v8h-46z"/><path fill="#80C4EC" stroke="#80C4EC" stroke-width="16.843" stroke-miterlimit="10" d="M184.167 319.667L206 261.334"/><path fill="#80C4EC" stroke="#80C4EC" stroke-width="10" stroke-miterlimit="10" d="M202.167 320.667L224 262.334"/><path fill="#C1C1C1" d="M172 314.334h45v8h-45zM191 251.334h44v14h-44z"/><path fill="#80C4EC" stroke="#80C4EC" stroke-width="16.843" stroke-miterlimit="10" d="M367.167 320.667L389 262.334"/><path fill="#80C4EC" stroke="#80C4EC" stroke-width="10" stroke-miterlimit="10" d="M385.167 321.667L407 263.334"/><path fill="#C1C1C1" d="M371 252.334h44v14h-44zM356 315.334h45v8h-45z"/><path fill="#80C4EC" stroke="#80C4EC" stroke-width="16" stroke-miterlimit="10" d="M252.333 326.73l14.617-64.396"/><path fill="#A5A39D" d="M252 260.334h29v4h-29zM244 301.334h4v29h-4zM281 262.334h4v29h-4z"/><path fill="#80C4EC" stroke="#80C4EC" stroke-width="5.359" stroke-miterlimit="10" d="M303.384 325.834l13.96-61.5"/><path fill="#A5A39D" stroke="#A5A39D" stroke-miterlimit="10" d="M183.5 322.834v-4h12v4z"/><path fill="#A5A39D" d="M281 302.334h4v29h-4z"/><path fill="#A5A39D" d="M245 325.334h70v4h-70zM246 260.334h72v4h-72z"/><path fill="#A5A39D" d="M316 263.334h4v29h-4z"/><path fill="#A5A39D" stroke="#A5A39D" stroke-miterlimit="10" d="M167.5 228.834v-4h11v4zM167.5 234.834v-4h7v4zM321.5 240.834v-4h16v4zM471.5 251.834v-4h7v4zM331.5 247.834v-4h12v4zM466.5 259.834v-4h12v4zM89.5 324.834v-4h4v4z"/><path opacity=".22" fill="#A5A39D" stroke="#A5A39D" stroke-miterlimit="10" d="M430.5 212.834h45v123h-45z"/><g><path fill="#3F3F3F" d="M323 333.917c0 .783-.634 1.417-1.417 1.417h-9.167c-.782 0-1.417-.634-1.417-1.417v-.166c0-.782.633-1.416 1.416-1.416h9.167c.782 0 1.417.634 1.417 1.417v.167z"/><path fill="#484949" d="M314 309.334h9v24h-9z"/><ellipse fill="#DDAE8D" cx="320.917" cy="312.238" rx="2.417" ry="2.404"/><path fill="#A39FED" stroke="#A39FED" stroke-width="3.485" stroke-miterlimit="10" d="M324 308.97c0 2.41-2.456 4.364-5.486 4.364h-.028c-3.03 0-5.486-1.954-5.486-4.364v-12.272c0-2.41 2.456-4.364 5.486-4.364h.028c3.03 0 5.486 1.954 5.486 4.364v12.272z"/><ellipse fill="#DDAE8D" cx="318" cy="286.478" rx="5.5" ry="5.231"/><ellipse fill="#DDAE8D" cx="317.917" cy="291.238" rx="2.417" ry="2.404"/><path fill="#484949" d="M311.704 285.334h8.9l1.114 4.062 2.225-.25.557-4.857-.974-1.83-1.947-1.17-1.67-.956h-2.643l-2.573.625-.765.686"/><g><path fill="#3F3F3F" d="M335 334.334c0 .552-.448 1-1 1h-9c-.552 0-1-.448-1-1s.448-1 1-1h9c.552 0 1 .448 1 1z"/><path fill="#484949" d="M327 314.334h8v19h-8z"/><ellipse fill="#E79F19" cx="333.274" cy="316.348" rx="2.26" ry="1.976"/><path fill="#385052" d="M336 312.334c0 2.76-2.24 5-5 5s-5-2.24-5-5v-7c0-2.76 2.24-5 5-5s5 2.24 5 5v7z"/><ellipse fill="#E79F19" cx="330.546" cy="295.172" rx="5.144" ry="4.3"/><ellipse fill="#E79F19" cx="330.469" cy="299.085" rx="2.26" ry="1.976"/><path fill="#484949" d="M324.658 294.334h8.325l1.04 3.29 2.08-.232.522-4.006-.91-1.51-1.82-.858-1.562-.684h-2.472l-2.405.408-.716.563"/></g><g><path fill="#3F3F3F" d="M350 333.917c0 .783-.634 1.417-1.417 1.417h-9.167c-.782 0-1.417-.634-1.417-1.417v-.166c0-.782.633-1.416 1.416-1.416h9.167c.782 0 1.417.634 1.417 1.417v.167z"/><path fill="#484949" d="M341 309.334h9v24h-9z"/><ellipse fill="#DDAE8D" cx="347.917" cy="312.238" rx="2.417" ry="2.404"/><path fill="#385052" d="M351 308.97c0 2.41-2.456 4.364-5.486 4.364h-.028c-3.03 0-5.486-1.954-5.486-4.364v-12.272c0-2.41 2.456-4.364 5.486-4.364h.028c3.03 0 5.486 1.954 5.486 4.364v12.272z"/><ellipse fill="#DDAE8D" cx="345" cy="286.478" rx="5.5" ry="5.231"/><ellipse fill="#DDAE8D" cx="344.917" cy="291.238" rx="2.417" ry="2.404"/><path fill="#484949" d="M338.704 285.334h8.9l1.114 4.062 2.225-.25.557-4.857-.974-1.83-1.947-1.17-1.67-.956h-2.643l-2.573.625-.765.686"/></g><g><path fill="#3F3F3F" d="M364 333.917c0 .783-.634 1.417-1.417 1.417h-9.167c-.782 0-1.417-.634-1.417-1.417v-.166c0-.782.633-1.416 1.416-1.416h9.167c.782 0 1.417.634 1.417 1.417v.167z"/><path fill="#484949" d="M355 309.334h9v24h-9z"/><ellipse fill="#DDAE8D" cx="361.917" cy="312.238" rx="2.417" ry="2.404"/><path fill="#ED776D" stroke="#ED776D" stroke-width="2" stroke-miterlimit="10" d="M365 308.97c0 2.41-2.456 4.364-5.486 4.364h-.028c-3.03 0-5.486-1.954-5.486-4.364v-12.272c0-2.41 2.456-4.364 5.486-4.364h.028c3.03 0 5.486 1.954 5.486 4.364v12.272z"/><ellipse fill="#DDAE8D" cx="359" cy="286.478" rx="5.5" ry="5.231"/><ellipse fill="#DDAE8D" cx="358.917" cy="291.238" rx="2.417" ry="2.404"/><path fill="#484949" d="M352.704 285.334h8.9l1.114 4.062 2.225-.25.557-4.857-.974-1.83-1.947-1.17-1.67-.956h-2.643l-2.573.625-.765.686"/></g><g><path fill="#3F3F3F" d="M377 334.334c0 .552-.448 1-1 1h-9c-.552 0-1-.448-1-1s.448-1 1-1h9c.552 0 1 .448 1 1z"/><path fill="#484949" d="M369 314.334h8v19h-8z"/><ellipse fill="#DDAE8D" cx="374.693" cy="316.323" rx="2.118" ry="1.979"/><path fill="#ED776D" stroke="#ED776D" stroke-width="2" stroke-miterlimit="10" d="M378 313.742c0 1.984-2.153 3.592-4.81 3.592h-.382c-2.656 0-4.81-1.608-4.81-3.592v-9.816c0-1.984 2.154-3.592 4.81-3.592h.383c2.657 0 4.81 1.608 4.81 3.592v9.816z"/><ellipse fill="#DDAE8D" cx="372.136" cy="295.12" rx="4.821" ry="4.306"/><ellipse fill="#DDAE8D" cx="372.063" cy="299.038" rx="2.118" ry="1.979"/><path fill="#484949" d="M366.617 294.334h7.803l.975 3.266 1.95-.245.488-4.017-.853-1.516-1.707-.832-1.463-.656h-2.316l-2.256.38-.67.575"/></g><g><path fill="#3F3F3F" d="M392 333.917c0 .783-.634 1.417-1.417 1.417h-9.167c-.782 0-1.417-.634-1.417-1.417v-.166c0-.782.633-1.416 1.416-1.416h9.167c.782 0 1.417.634 1.417 1.417v.167z"/><path fill="#484949" d="M383 309.334h9v24h-9z"/><ellipse fill="#E79F19" cx="389.917" cy="312.238" rx="2.417" ry="2.404"/><path fill="#FFDF8E" stroke="#FFDF8E" stroke-width="2" stroke-miterlimit="10" d="M393 308.97c0 2.41-2.456 4.364-5.486 4.364h-.028c-3.03 0-5.486-1.954-5.486-4.364v-12.272c0-2.41 2.456-4.364 5.486-4.364h.028c3.03 0 5.486 1.954 5.486 4.364v12.272z"/><ellipse fill="#E79F19" cx="387" cy="286.478" rx="5.5" ry="5.231"/><ellipse fill="#E79F19" cx="386.917" cy="291.238" rx="2.417" ry="2.404"/><path fill="#484949" d="M380.704 285.334h8.9l1.114 4.062 2.225-.25.557-4.857-.974-1.83-1.947-1.17-1.67-.956h-2.643l-2.573.625-.765.686"/></g><g><path fill="#3F3F3F" d="M303 333.917c0 .783-.634 1.417-1.417 1.417h-9.167c-.782 0-1.417-.634-1.417-1.417v-.166c0-.782.633-1.416 1.416-1.416h9.167c.782 0 1.417.634 1.417 1.417v.167z"/><path fill="#484949" d="M294 309.334h9v24h-9z"/><ellipse fill="#DDAE8D" cx="300.917" cy="312.238" rx="2.417" ry="2.404"/><path fill="#385052" d="M304 308.97c0 2.41-2.456 4.364-5.486 4.364h-.028c-3.03 0-5.486-1.954-5.486-4.364v-12.272c0-2.41 2.456-4.364 5.486-4.364h.028c3.03 0 5.486 1.954 5.486 4.364v12.272z"/><ellipse fill="#DDAE8D" cx="298" cy="286.478" rx="5.5" ry="5.231"/><ellipse fill="#DDAE8D" cx="297.917" cy="291.238" rx="2.417" ry="2.404"/><path fill="#484949" d="M291.704 285.334h8.9l1.114 4.062 2.225-.25.557-4.857-.974-1.83-1.947-1.17-1.67-.956h-2.643l-2.573.625-.765.686"/></g></g></svg>